<?xml version="1.0" encoding="iso-8859-1"?>
<!-- Generator: Adobe Illustrator 24.3.0, SVG Export Plug-In . SVG Version: 6.00 Build 0)  -->
<svg version="1.1" id="Layer_1" xmlns="http://www.w3.org/2000/svg" xmlns:xlink="http://www.w3.org/1999/xlink" x="0px" y="0px"
	 viewBox="0 0 500 500" style="enable-background:new 0 0 500 500;" xml:space="preserve">
<g id="watermark_1_">
	<g>
		<g id="watermark" style="opacity:0.61;">
			<g>
				<g>
					<g>
						<g>
							<polygon style="fill:#FFFFFF;" points="213.765,461.172 208.204,474.017 205.268,474.017 199.726,461.172 202.938,461.172 
								206.846,470.347 210.81,461.172 							"/>
						</g>
						<g>
							<path style="fill:#FFFFFF;" d="M223.507,469.741h-7.469c0.275,1.23,1.321,1.982,2.826,1.982c1.046,0,1.798-0.312,2.477-0.954
								l1.523,1.651c-0.917,1.046-2.294,1.597-4.074,1.597c-3.413,0-5.634-2.147-5.634-5.083c0-2.954,2.257-5.083,5.267-5.083
								c2.899,0,5.138,1.945,5.138,5.12C223.562,469.191,223.526,469.503,223.507,469.741 M216.002,468.071h4.863
								c-0.202-1.248-1.138-2.055-2.422-2.055C217.139,466.016,216.204,466.805,216.002,468.071"/>
						</g>
						<g>
							<path style="fill:#FFFFFF;" d="M224.735,468.934c0-2.973,2.294-5.083,5.505-5.083c2.074,0,3.707,0.899,4.423,2.514
								l-2.22,1.193c-0.532-0.936-1.321-1.358-2.221-1.358c-1.45,0-2.587,1.009-2.587,2.734c0,1.725,1.138,2.734,2.587,2.734
								c0.899,0,1.688-0.404,2.221-1.358l2.22,1.211c-0.716,1.578-2.349,2.495-4.423,2.495
								C227.029,474.017,224.735,471.907,224.735,468.934"/>
						</g>
						<g>
							<path style="fill:#FFFFFF;" d="M242.828,473.393c-0.587,0.422-1.45,0.624-2.331,0.624c-2.33,0-3.688-1.193-3.688-3.542
								v-4.055h-1.523v-2.202h1.523v-2.404h2.863v2.404h2.459v2.202h-2.459v4.019c0,0.844,0.458,1.303,1.229,1.303
								c0.422,0,0.844-0.128,1.156-0.367L242.828,473.393z"/>
						</g>
					</g>
					<g>
						<path style="fill:#FFFFFF;" d="M262.474,463.997v2.643c-0.238-0.018-0.422-0.037-0.642-0.037
							c-1.578,0-2.624,0.862-2.624,2.753v4.661h-2.863v-9.873h2.734v1.303C259.776,464.493,260.951,463.997,262.474,463.997"/>
					</g>
					<g>
						<path style="fill:#FFFFFF;" d="M263.299,472.53l1.009-2.239c1.083,0.789,2.697,1.339,4.239,1.339
							c1.762,0,2.477-0.587,2.477-1.376c0-2.404-7.469-0.752-7.469-5.524c0-2.184,1.762-4,5.413-4c1.615,0,3.267,0.385,4.459,1.138
							l-0.918,2.257c-1.193-0.679-2.422-1.009-3.56-1.009c-1.761,0-2.44,0.66-2.44,1.468c0,2.367,7.468,0.734,7.468,5.45
							c0,2.147-1.78,3.982-5.45,3.982C266.492,474.017,264.437,473.411,263.299,472.53"/>
					</g>
					<g>
						<path style="fill:#FFFFFF;" d="M285.428,469.741h-7.469c0.275,1.23,1.321,1.982,2.826,1.982c1.046,0,1.798-0.312,2.477-0.954
							l1.523,1.651c-0.918,1.046-2.294,1.597-4.074,1.597c-3.413,0-5.634-2.147-5.634-5.083c0-2.954,2.257-5.083,5.267-5.083
							c2.9,0,5.138,1.945,5.138,5.12C285.484,469.191,285.447,469.503,285.428,469.741 M277.923,468.071h4.863
							c-0.202-1.248-1.138-2.055-2.422-2.055C279.061,466.016,278.125,466.805,277.923,468.071"/>
					</g>
					<g>
						<path style="fill:#FFFFFF;" d="M297.007,469.741h-7.469c0.275,1.23,1.321,1.982,2.826,1.982c1.046,0,1.798-0.312,2.477-0.954
							l1.523,1.651c-0.918,1.046-2.294,1.597-4.074,1.597c-3.413,0-5.634-2.147-5.634-5.083c0-2.954,2.257-5.083,5.267-5.083
							c2.899,0,5.138,1.945,5.138,5.12C297.062,469.191,297.025,469.503,297.007,469.741 M289.501,468.071h4.863
							c-0.202-1.248-1.138-2.055-2.422-2.055C290.639,466.016,289.703,466.805,289.501,468.071"/>
					</g>
					<g>
						<polygon style="fill:#FFFFFF;" points="303.208,470.145 301.831,471.503 301.831,474.017 298.969,474.017 298.969,460.401 
							301.831,460.401 301.831,468.108 306.016,464.144 309.429,464.144 305.318,468.328 309.796,474.017 306.327,474.017 						"/>
					</g>
					<g>
						<path style="fill:#FFFFFF;" d="M256.601,475.359L256.601,475.359l-2.86-2.86c-0.435,0.508-0.953,0.943-1.534,1.284
							c-0.092,0.069-0.186,0.136-0.283,0.199l3.027,3.027c0.456,0.456,1.195,0.456,1.65,0
							C257.057,476.554,257.057,475.815,256.601,475.359"/>
					</g>
					<g>
						<path style="fill:#FFFFFF;" d="M249.984,463.244c0.221-0.173,0.495-0.281,0.797-0.281c0.042,0,0.083,0.002,0.124,0.006
							c-0.214-0.156-0.478-0.249-0.764-0.249c-0.395,0-0.744,0.18-0.981,0.458c-0.051,0-0.1,0.006-0.151,0.008
							c0.039-0.077,0.064-0.162,0.064-0.255c0-0.234-0.143-0.434-0.346-0.519c0.087,0.126,0.138,0.279,0.138,0.445
							c0,0.122-0.031,0.237-0.081,0.341c-2.811,0.201-5.03,2.539-5.03,5.4c0,2.993,2.426,5.42,5.42,5.42
							c2.993,0,5.42-2.426,5.42-5.42C254.595,465.879,252.593,463.635,249.984,463.244 M247.983,464.656
							c0.435,0,0.844,0.112,1.199,0.309c0.374-0.245,0.82-0.387,1.299-0.387c0.711,0,1.348,0.312,1.784,0.806
							c-0.435-0.379-1.004-0.61-1.627-0.61c-0.449,0-0.87,0.12-1.234,0.329c-0.079,0.046-0.156,0.096-0.229,0.15
							c-0.065-0.048-0.133-0.093-0.204-0.134c-0.369-0.219-0.8-0.344-1.26-0.344c-0.3,0-0.588,0.054-0.854,0.152
							C247.196,464.754,247.578,464.656,247.983,464.656 M251.772,469.098c0.115,0.305,0.181,0.634,0.181,0.979
							c0,1.534-1.244,2.777-2.778,2.777c-1.534,0-2.777-1.243-2.777-2.777c0-0.345,0.066-0.674,0.181-0.979
							c-0.62-0.382-1.035-1.064-1.035-1.846c0-1.197,0.971-2.168,2.168-2.168c0.565,0,1.078,0.218,1.463,0.572
							c0.386-0.354,0.899-0.572,1.464-0.572c1.197,0,2.168,0.971,2.168,2.168C252.807,468.034,252.392,468.716,251.772,469.098"/>
					</g>
					<g>
						<path style="fill:#FFFFFF;" d="M251.666,467.061c0,0.497-0.404,0.901-0.901,0.901c-0.497,0-0.901-0.404-0.901-0.901
							s0.404-0.901,0.901-0.901c0.101,0,0.197,0.017,0.287,0.047c-0.03,0.062-0.045,0.132-0.045,0.204
							c0,0.273,0.221,0.494,0.494,0.494c0.05,0,0.099-0.008,0.146-0.022C251.66,466.941,251.666,467,251.666,467.061"/>
					</g>
					<g>
						<path style="fill:#FFFFFF;" d="M248.255,467.061c0,0.376-0.305,0.681-0.681,0.681c-0.376,0-0.681-0.305-0.681-0.681
							s0.305-0.681,0.681-0.681c0.076,0,0.149,0.013,0.217,0.035c-0.023,0.047-0.034,0.1-0.034,0.155
							c0,0.206,0.167,0.374,0.374,0.374c0.038,0,0.075-0.006,0.11-0.017C248.25,466.97,248.255,467.015,248.255,467.061"/>
					</g>
					<g>
						<g>
							<g>
								<rect x="242.908" y="467.83" style="fill:#FFFFFF;" width="0.616" height="0.616"/>
							</g>
							<g>
								<rect x="254.827" y="467.83" style="fill:#FFFFFF;" width="0.616" height="0.616"/>
							</g>
							<g>
								<path style="fill:#FFFFFF;" d="M255.205,468.082h-0.14c0-3.248-2.642-5.89-5.89-5.89c-3.248,0-5.89,2.642-5.89,5.89h-0.14
									c0-1.611,0.627-3.125,1.766-4.264c1.139-1.139,2.653-1.766,4.264-1.766c1.611,0,3.125,0.627,4.264,1.766
									C254.578,464.957,255.205,466.471,255.205,468.082"/>
							</g>
						</g>
						<g>
							<rect x="248.868" y="461.814" style="fill:#FFFFFF;" width="0.616" height="0.616"/>
						</g>
						<g>
							<rect x="244.95" y="462.052" style="fill:#FFFFFF;" width="8.45" height="0.14"/>
						</g>
						<g>
							<path style="fill:#FFFFFF;" d="M245.174,462.15c0,0.108-0.088,0.196-0.196,0.196c-0.108,0-0.196-0.088-0.196-0.196
								c0-0.108,0.088-0.196,0.196-0.196C245.086,461.954,245.174,462.042,245.174,462.15"/>
						</g>
						<g>
							<path style="fill:#FFFFFF;" d="M253.596,462.15c0,0.108-0.088,0.196-0.196,0.196c-0.108,0-0.196-0.088-0.196-0.196
								c0-0.108,0.088-0.196,0.196-0.196C253.509,461.954,253.596,462.042,253.596,462.15"/>
						</g>
					</g>
				</g>
				<g>
					<path style="fill:#FFFFFF;" d="M314.356,473.409c0,1.559-2.364,1.559-2.364,0C311.993,471.851,314.356,471.851,314.356,473.409
						z"/>
				</g>
				<g>
					<g>
						<g>
							<path style="fill:#FFFFFF;" d="M161.739,466.549l1.772,6.088l1.855-6.088h2.215l-2.823,8.14h-2.33l-0.837-2.396l-0.722-2.708
								l-0.722,2.708l-0.837,2.396h-2.33l-2.839-8.14h2.231l1.855,6.088l1.756-6.088H161.739z"/>
						</g>
						<g>
							<path style="fill:#FFFFFF;" d="M176.713,466.549l1.772,6.088l1.855-6.088h2.215l-2.823,8.14h-2.33l-0.837-2.396l-0.722-2.708
								l-0.722,2.708l-0.837,2.396h-2.33l-2.839-8.14h2.231l1.855,6.088l1.756-6.088H176.713z"/>
						</g>
						<g>
							<path style="fill:#FFFFFF;" d="M191.687,466.549l1.772,6.088l1.855-6.088h2.215l-2.823,8.14h-2.33l-0.837-2.396l-0.722-2.708
								l-0.722,2.708l-0.837,2.396h-2.33l-2.839-8.14h2.231l1.855,6.088l1.756-6.088H191.687z"/>
						</g>
					</g>
					<g>
						<path style="fill:#FFFFFF;" d="M200.908,473.52c0,1.559-2.364,1.559-2.364,0C198.545,471.962,200.908,471.962,200.908,473.52z
							"/>
					</g>
					<g>
						<path style="fill:#FFFFFF;" d="M322.71,473.409c-0.935,0.919-1.919,1.28-3.117,1.28c-2.346,0-4.3-1.411-4.3-4.282
							s1.953-4.284,4.3-4.284c1.149,0,2.035,0.329,2.921,1.199l-1.264,1.329c-0.476-0.428-1.066-0.64-1.623-0.64
							c-1.346,0-2.33,0.985-2.33,2.396c0,1.542,1.05,2.362,2.297,2.362c0.64,0,1.28-0.18,1.772-0.672L322.71,473.409z"/>
					</g>
					<g>
						<path style="fill:#FFFFFF;" d="M331.805,470.472c0,2.33-1.591,4.217-4.217,4.217c-2.626,0-4.201-1.887-4.201-4.217
							c0-2.314,1.609-4.217,4.185-4.217C330.149,466.255,331.805,468.158,331.805,470.472z M325.389,470.472
							c0,1.231,0.739,2.38,2.199,2.38c1.46,0,2.199-1.149,2.199-2.38c0-1.215-0.854-2.396-2.199-2.396
							C326.144,468.077,325.389,469.258,325.389,470.472z"/>
					</g>
					<g>
						<path style="fill:#FFFFFF;" d="M338.572,474.689v-4.332c0-1.068-0.559-2.035-1.658-2.035c-1.082,0-1.722,0.967-1.722,2.035
							v4.332h-2.003v-8.107h1.855l0.148,0.985c0.426-0.82,1.362-1.116,2.133-1.116c0.969,0,1.937,0.394,2.396,1.51
							c0.723-1.149,1.658-1.478,2.708-1.478c2.297,0,3.43,1.412,3.43,3.84v4.365h-2.003v-4.365c0-1.066-0.442-1.97-1.526-1.97
							c-1.082,0-1.756,0.935-1.756,2.003v4.332H338.572z"/>
					</g>
				</g>
			</g>
		</g>
		<g style="opacity:0.61;">
			<g>
				<g>
					<path style="fill:#FFFFFF;" d="M345.988,431.299c-0.006-1.224-0.959-2.121-2.189-2.14c-0.924-0.014-0.832,0.12-0.834-0.867
						c-0.003-1.097-0.007-2.194,0.003-3.292c0.003-0.379-0.112-0.691-0.362-0.976c-2.342-2.668-4.678-5.342-7.019-8.011
						c-0.12-0.137-0.275-0.244-0.414-0.366c-6.214,0-12.427,0-18.641,0c-0.794,0.293-1.14,0.868-1.138,1.709
						c0.01,3.748,0.004,7.496,0.004,11.243c0,0.556-0.003,0.589-0.55,0.551c-1.497-0.102-2.516,0.986-2.497,2.492
						c0.044,3.476,0.013,6.953,0.014,10.429c0.001,1.58,0.867,2.443,2.45,2.449c0.582,0.002,0.582,0.002,0.582,0.6
						c0,2.219-0.001,4.438,0.001,6.657c0.001,1.192,0.58,1.771,1.768,1.771c8.013,0.001,16.027,0.001,24.04,0
						c1.168,0,1.755-0.583,1.757-1.745c0.002-2.256,0-4.512,0.001-6.768c0-0.512,0.002-0.511,0.52-0.515
						c0.271-0.002,0.541,0.008,0.809-0.058c0.996-0.246,1.69-1.044,1.694-2.069C346.003,438.696,346.005,434.997,345.988,431.299z
						 M317.537,417.162c5.337,0,10.674,0,16.01,0c0.548,0,0.554,0.007,0.554,0.561c0.001,2.243-0.001,4.486,0.001,6.73
						c0.001,0.811,0.249,1.059,1.06,1.059c1.91,0.001,3.821,0,5.731,0.001c0.458,0,0.479,0.021,0.481,0.483
						c0.003,0.887,0.002,1.775,0,2.662c-0.001,0.477-0.024,0.498-0.504,0.499c-3.895,0.001-7.79,0-11.684,0
						c-3.882,0-7.765,0-11.647,0c-0.55,0-0.552-0.001-0.552-0.561c-0.001-3.624-0.001-7.247,0-10.871
						C316.987,417.166,316.991,417.162,317.537,417.162z M340.822,451.579c-3.883,0.001-7.766,0-11.65,0c-3.871,0-7.742,0-11.613,0
						c-0.572,0-0.574-0.002-0.574-0.579c-0.001-1.997-0.001-3.994,0.001-5.991c0-0.464,0.023-0.486,0.478-0.487
						c7.803-0.001,15.607-0.001,23.41,0c0.478,0,0.499,0.02,0.499,0.503c0.002,1.997,0.001,3.994,0,5.991
						C341.375,451.574,341.37,451.579,340.822,451.579z"/>
				</g>
				<g>
					<g>
						<rect x="327.418" y="417.053" style="fill:#FFFFFF;" width="1.757" height="1.054"/>
					</g>
					<g>
						<rect x="325.662" y="418.107" style="fill:#FFFFFF;" width="1.757" height="1.054"/>
					</g>
					<g>
						<rect x="327.418" y="419.161" style="fill:#FFFFFF;" width="1.757" height="1.054"/>
					</g>
					<g>
						<rect x="325.662" y="420.215" style="fill:#FFFFFF;" width="1.757" height="1.054"/>
					</g>
					<g>
						<rect x="327.418" y="421.269" style="fill:#FFFFFF;" width="1.757" height="1.054"/>
					</g>
					<g>
						<rect x="325.662" y="422.323" style="fill:#FFFFFF;" width="1.757" height="1.054"/>
					</g>
					<g>
						<rect x="327.418" y="423.378" style="fill:#FFFFFF;" width="1.757" height="1.054"/>
					</g>
					<g>
						<rect x="325.662" y="424.432" style="fill:#FFFFFF;" width="1.757" height="1.054"/>
					</g>
					<g>
						<rect x="327.418" y="425.486" style="fill:#FFFFFF;" width="1.757" height="1.054"/>
					</g>
					<g>
						<rect x="325.662" y="426.54" style="fill:#FFFFFF;" width="1.757" height="1.054"/>
					</g>
					<g>
						<rect x="327.418" y="427.594" style="fill:#FFFFFF;" width="1.757" height="1.054"/>
					</g>
					<g>
						<rect x="325.662" y="428.648" style="fill:#FFFFFF;" width="1.757" height="1.054"/>
					</g>
				</g>
			</g>
			<g>
				<path style="fill:#FFFFFF;" d="M187.637,431.299c-0.006-1.224-0.959-2.121-2.189-2.14c-0.924-0.014-0.832,0.12-0.834-0.867
					c-0.003-1.097-0.007-2.194,0.003-3.292c0.003-0.379-0.112-0.691-0.362-0.976c-2.342-2.668-4.678-5.342-7.019-8.011
					c-0.12-0.137-0.275-0.244-0.414-0.366c-6.214,0-12.427,0-18.641,0c-0.794,0.293-1.14,0.868-1.138,1.709
					c0.01,3.748,0.004,7.496,0.004,11.243c0,0.556-0.003,0.589-0.55,0.551c-1.497-0.102-2.516,0.986-2.497,2.492
					c0.044,3.476,0.013,6.953,0.014,10.429c0.001,1.58,0.867,2.443,2.45,2.449c0.582,0.002,0.582,0.002,0.582,0.6
					c0,2.219-0.001,4.438,0.001,6.657c0.001,1.192,0.58,1.771,1.768,1.771c8.013,0.001,16.027,0.001,24.04,0
					c1.168,0,1.755-0.583,1.757-1.745c0.002-2.256,0-4.512,0.001-6.768c0-0.512,0.002-0.511,0.52-0.515
					c0.271-0.002,0.541,0.008,0.809-0.058c0.996-0.246,1.69-1.044,1.694-2.069C187.652,438.696,187.655,434.997,187.637,431.299z
					 M159.187,417.162c5.337,0,10.674,0,16.01,0c0.548,0,0.554,0.007,0.554,0.561c0.001,2.243-0.001,4.486,0.001,6.73
					c0.001,0.811,0.249,1.059,1.06,1.059c1.91,0.001,3.821,0,5.731,0.001c0.458,0,0.479,0.021,0.481,0.483
					c0.003,0.887,0.002,1.775,0,2.662c-0.001,0.477-0.024,0.498-0.504,0.499c-3.895,0.001-7.79,0-11.684,0
					c-3.882,0-7.765,0-11.647,0c-0.55,0-0.552-0.001-0.552-0.561c-0.001-3.624-0.001-7.247,0-10.871
					C158.636,417.166,158.64,417.162,159.187,417.162z M182.472,451.579c-3.883,0.001-7.766,0-11.65,0c-3.871,0-7.742,0-11.613,0
					c-0.572,0-0.574-0.002-0.574-0.579c-0.001-1.997-0.001-3.994,0.001-5.991c0-0.464,0.023-0.486,0.478-0.487
					c7.803-0.001,15.607-0.001,23.41,0c0.478,0,0.499,0.02,0.499,0.503c0.002,1.997,0.001,3.994,0,5.991
					C183.024,451.574,183.019,451.579,182.472,451.579z"/>
			</g>
			<g>
				<path style="fill:#FFFFFF;" d="M159.779,440.669v-7.897h2.779c0.375,0,0.726,0.061,1.053,0.182
					c0.327,0.121,0.612,0.292,0.855,0.513c0.242,0.221,0.434,0.483,0.573,0.789c0.14,0.305,0.21,0.642,0.21,1.009
					c0,0.375-0.07,0.715-0.21,1.02c-0.14,0.305-0.331,0.568-0.573,0.789c-0.243,0.221-0.528,0.392-0.855,0.513
					c-0.327,0.121-0.678,0.182-1.053,0.182h-1.29v2.901H159.779z M162.58,436.356c0.39,0,0.684-0.111,0.882-0.331
					c0.199-0.22,0.298-0.474,0.298-0.761c0-0.14-0.024-0.276-0.072-0.408c-0.048-0.132-0.121-0.248-0.221-0.347
					c-0.099-0.099-0.223-0.178-0.37-0.237c-0.147-0.059-0.32-0.089-0.518-0.089h-1.312v2.173H162.58z"/>
				<path style="fill:#FFFFFF;" d="M166.308,432.771h1.731l3.177,5.294h0.088l-0.088-1.522v-3.772h1.478v7.897h-1.566l-3.353-5.592
					h-0.088l0.088,1.522v4.07h-1.467V432.771z"/>
				<path style="fill:#FFFFFF;" d="M177.922,436.334h3.872c0.022,0.089,0.04,0.195,0.055,0.32c0.014,0.125,0.022,0.25,0.022,0.375
					c0,0.507-0.077,0.985-0.231,1.434c-0.154,0.449-0.397,0.849-0.728,1.202c-0.353,0.375-0.776,0.666-1.268,0.871
					c-0.493,0.206-1.055,0.309-1.688,0.309c-0.574,0-1.114-0.103-1.622-0.309c-0.507-0.206-0.948-0.492-1.323-0.86
					c-0.375-0.367-0.673-0.803-0.894-1.307c-0.221-0.504-0.331-1.053-0.331-1.649c0-0.595,0.11-1.145,0.331-1.649
					c0.221-0.504,0.518-0.939,0.894-1.307c0.375-0.367,0.816-0.654,1.323-0.86c0.507-0.206,1.048-0.309,1.622-0.309
					c0.64,0,1.211,0.11,1.715,0.331c0.504,0.221,0.935,0.526,1.296,0.915l-1.025,1.004c-0.258-0.272-0.544-0.48-0.861-0.623
					c-0.316-0.143-0.695-0.215-1.136-0.215c-0.361,0-0.703,0.065-1.026,0.193c-0.324,0.129-0.607,0.311-0.85,0.546
					c-0.242,0.235-0.436,0.52-0.579,0.855c-0.143,0.335-0.215,0.708-0.215,1.119c0,0.412,0.072,0.785,0.215,1.12
					c0.143,0.335,0.338,0.62,0.584,0.855c0.246,0.235,0.531,0.418,0.855,0.546c0.323,0.129,0.669,0.193,1.037,0.193
					c0.419,0,0.773-0.061,1.064-0.182c0.29-0.121,0.538-0.278,0.744-0.469c0.148-0.132,0.275-0.3,0.381-0.502
					c0.106-0.202,0.189-0.428,0.248-0.678h-2.482V436.334z"/>
			</g>
			<g>
				<path style="fill:#FFFFFF;" d="M224.019,431.299c-0.006-1.224-0.959-2.121-2.189-2.14c-0.924-0.014-0.832,0.12-0.834-0.867
					c-0.003-1.097-0.007-2.194,0.003-3.292c0.003-0.379-0.112-0.691-0.362-0.976c-2.342-2.668-4.678-5.342-7.019-8.011
					c-0.12-0.137-0.275-0.244-0.414-0.366c-6.214,0-12.427,0-18.641,0c-0.794,0.293-1.14,0.868-1.138,1.709
					c0.01,3.748,0.004,7.496,0.004,11.243c0,0.556-0.003,0.589-0.55,0.551c-1.497-0.102-2.516,0.986-2.497,2.492
					c0.044,3.476,0.013,6.953,0.014,10.429c0.001,1.58,0.867,2.443,2.45,2.449c0.582,0.002,0.582,0.002,0.582,0.6
					c0,2.219-0.001,4.438,0.001,6.657c0.001,1.192,0.58,1.771,1.768,1.771c8.013,0.001,16.027,0.001,24.04,0
					c1.168,0,1.755-0.583,1.757-1.745c0.002-2.256,0-4.512,0.001-6.768c0-0.512,0.002-0.511,0.52-0.515
					c0.271-0.002,0.541,0.008,0.809-0.058c0.997-0.246,1.69-1.044,1.694-2.069C224.034,438.696,224.036,434.997,224.019,431.299z
					 M195.568,417.162c5.337,0,10.674,0,16.01,0c0.548,0,0.554,0.007,0.554,0.561c0.001,2.243-0.001,4.486,0.001,6.73
					c0.001,0.811,0.249,1.059,1.06,1.059c1.91,0.001,3.821,0,5.731,0.001c0.458,0,0.479,0.021,0.481,0.483
					c0.003,0.887,0.002,1.775,0,2.662c-0.001,0.477-0.024,0.498-0.504,0.499c-3.895,0.001-7.79,0-11.684,0
					c-3.882,0-7.765,0-11.647,0c-0.55,0-0.552-0.001-0.552-0.561c-0.001-3.624-0.001-7.247,0-10.871
					C195.018,417.166,195.022,417.162,195.568,417.162z M218.854,451.579c-3.883,0.001-7.766,0-11.65,0c-3.871,0-7.742,0-11.613,0
					c-0.572,0-0.574-0.002-0.574-0.579c-0.001-1.997-0.001-3.994,0.001-5.991c0-0.464,0.023-0.486,0.478-0.487
					c7.803-0.001,15.607-0.001,23.41,0c0.478,0,0.499,0.02,0.499,0.503c0.002,1.997,0.001,3.994,0,5.991
					C219.406,451.574,219.401,451.579,218.854,451.579z"/>
			</g>
			<g>
				<path style="fill:#FFFFFF;" d="M205.111,432.771h1.699l2.967,7.897h-1.644l-0.651-1.886h-3.044l-0.651,1.886h-1.643
					L205.111,432.771z M206.997,437.415l-0.706-1.974l-0.287-0.96h-0.088l-0.287,0.96l-0.706,1.974H206.997z"/>
				<path style="fill:#FFFFFF;" d="M211.331,434.536c-0.125,0-0.245-0.024-0.359-0.072c-0.114-0.048-0.213-0.114-0.298-0.199
					c-0.084-0.084-0.151-0.182-0.198-0.292c-0.048-0.11-0.072-0.232-0.072-0.364s0.024-0.254,0.072-0.364
					c0.048-0.11,0.114-0.208,0.198-0.292c0.084-0.084,0.184-0.151,0.298-0.198c0.114-0.048,0.233-0.072,0.359-0.072
					c0.257,0,0.478,0.09,0.662,0.27c0.184,0.181,0.276,0.399,0.276,0.656s-0.092,0.476-0.276,0.656
					C211.809,434.446,211.589,434.536,211.331,434.536z M210.615,440.669v-5.404h1.445v5.404H210.615z"/>
			</g>
			<g>
				<path style="fill:#FFFFFF;" d="M261.044,431.299c-0.006-1.224-0.959-2.121-2.189-2.14c-0.924-0.014-0.832,0.12-0.834-0.867
					c-0.003-1.097-0.007-2.194,0.003-3.292c0.003-0.379-0.112-0.691-0.362-0.976c-2.342-2.668-4.678-5.342-7.019-8.011
					c-0.12-0.137-0.275-0.244-0.414-0.366c-6.214,0-12.427,0-18.641,0c-0.794,0.293-1.14,0.868-1.138,1.709
					c0.01,3.748,0.004,7.496,0.004,11.243c0,0.556-0.003,0.589-0.55,0.551c-1.497-0.102-2.516,0.986-2.497,2.492
					c0.044,3.476,0.013,6.953,0.014,10.429c0.001,1.58,0.867,2.443,2.45,2.449c0.582,0.002,0.582,0.002,0.582,0.6
					c0,2.219-0.001,4.438,0.001,6.657c0.001,1.192,0.58,1.771,1.768,1.771c8.013,0.001,16.027,0.001,24.04,0
					c1.168,0,1.755-0.583,1.757-1.745c0.002-2.256,0-4.512,0.001-6.768c0-0.512,0.002-0.511,0.52-0.515
					c0.271-0.002,0.541,0.008,0.809-0.058c0.996-0.246,1.69-1.044,1.694-2.069C261.059,438.696,261.061,434.997,261.044,431.299z
					 M232.593,417.162c5.337,0,10.674,0,16.01,0c0.548,0,0.554,0.007,0.554,0.561c0.001,2.243-0.001,4.486,0.001,6.73
					c0.001,0.811,0.249,1.059,1.06,1.059c1.91,0.001,3.821,0,5.731,0.001c0.458,0,0.479,0.021,0.481,0.483
					c0.003,0.887,0.002,1.775,0,2.662c-0.001,0.477-0.024,0.498-0.504,0.499c-3.895,0.001-7.79,0-11.684,0
					c-3.882,0-7.765,0-11.647,0c-0.55,0-0.552-0.001-0.552-0.561c-0.001-3.624-0.001-7.247,0-10.871
					C232.042,417.166,232.047,417.162,232.593,417.162z M255.878,451.579c-3.883,0.001-7.766,0-11.65,0c-3.871,0-7.742,0-11.613,0
					c-0.572,0-0.574-0.002-0.574-0.579c-0.001-1.997-0.001-3.994,0.001-5.991c0-0.464,0.023-0.486,0.478-0.487
					c7.803-0.001,15.607-0.001,23.41,0c0.478,0,0.499,0.02,0.499,0.503c0.002,1.997,0.001,3.994,0,5.991
					C256.431,451.574,256.426,451.579,255.878,451.579z"/>
			</g>
			<g>
				<path style="fill:#FFFFFF;" d="M236.361,440.845c-0.338,0-0.662-0.048-0.971-0.143c-0.309-0.095-0.592-0.239-0.849-0.43
					c-0.257-0.191-0.481-0.425-0.673-0.7c-0.191-0.276-0.342-0.597-0.452-0.965l1.401-0.551c0.103,0.397,0.283,0.726,0.54,0.987
					c0.257,0.261,0.596,0.392,1.015,0.392c0.154,0,0.303-0.02,0.447-0.061c0.143-0.04,0.272-0.099,0.386-0.176
					s0.204-0.175,0.27-0.292c0.066-0.118,0.099-0.254,0.099-0.408c0-0.147-0.026-0.279-0.077-0.397
					c-0.051-0.117-0.138-0.227-0.259-0.331c-0.121-0.103-0.28-0.202-0.475-0.298c-0.195-0.095-0.435-0.195-0.722-0.298l-0.485-0.176
					c-0.213-0.073-0.429-0.173-0.645-0.298c-0.217-0.125-0.413-0.276-0.59-0.452c-0.177-0.176-0.322-0.384-0.436-0.623
					c-0.114-0.239-0.171-0.509-0.171-0.81c0-0.309,0.06-0.597,0.182-0.866c0.121-0.268,0.294-0.503,0.518-0.706
					c0.224-0.202,0.492-0.36,0.805-0.474s0.66-0.171,1.042-0.171c0.397,0,0.74,0.053,1.031,0.16
					c0.291,0.107,0.537,0.243,0.739,0.408c0.202,0.165,0.366,0.348,0.491,0.546c0.125,0.199,0.217,0.386,0.276,0.563l-1.312,0.551
					c-0.074-0.221-0.208-0.419-0.402-0.596c-0.195-0.176-0.462-0.265-0.8-0.265c-0.324,0-0.592,0.075-0.805,0.226
					c-0.213,0.151-0.32,0.348-0.32,0.59c0,0.235,0.103,0.436,0.309,0.601c0.206,0.165,0.533,0.325,0.982,0.48l0.497,0.165
					c0.316,0.111,0.605,0.237,0.866,0.381c0.261,0.143,0.485,0.314,0.673,0.513c0.187,0.199,0.331,0.425,0.43,0.678
					c0.1,0.254,0.149,0.546,0.149,0.877c0,0.412-0.083,0.767-0.248,1.064c-0.165,0.298-0.377,0.542-0.634,0.734
					c-0.258,0.191-0.548,0.335-0.872,0.43C236.986,440.797,236.67,440.845,236.361,440.845z"/>
				<path style="fill:#FFFFFF;" d="M239.516,432.771h1.61l1.633,4.754l0.287,1.015h0.088l0.309-1.015l1.699-4.754h1.61l-2.879,7.897
					h-1.566L239.516,432.771z"/>
				<path style="fill:#FFFFFF;" d="M251.097,436.334h3.871c0.022,0.089,0.04,0.195,0.055,0.32c0.015,0.125,0.023,0.25,0.023,0.375
					c0,0.507-0.078,0.985-0.232,1.434c-0.154,0.449-0.397,0.849-0.728,1.202c-0.353,0.375-0.775,0.666-1.268,0.871
					c-0.493,0.206-1.055,0.309-1.688,0.309c-0.574,0-1.114-0.103-1.621-0.309c-0.507-0.206-0.949-0.492-1.324-0.86
					c-0.375-0.367-0.673-0.803-0.894-1.307c-0.22-0.504-0.331-1.053-0.331-1.649c0-0.595,0.11-1.145,0.331-1.649
					c0.221-0.504,0.518-0.939,0.894-1.307c0.375-0.367,0.816-0.654,1.324-0.86c0.507-0.206,1.047-0.309,1.621-0.309
					c0.64,0,1.211,0.11,1.715,0.331c0.504,0.221,0.936,0.526,1.296,0.915l-1.026,1.004c-0.257-0.272-0.544-0.48-0.861-0.623
					c-0.316-0.143-0.694-0.215-1.136-0.215c-0.36,0-0.702,0.065-1.026,0.193c-0.323,0.129-0.607,0.311-0.849,0.546
					c-0.243,0.235-0.436,0.52-0.579,0.855c-0.143,0.335-0.215,0.708-0.215,1.119c0,0.412,0.072,0.785,0.215,1.12
					c0.143,0.335,0.338,0.62,0.585,0.855c0.246,0.235,0.531,0.418,0.854,0.546c0.324,0.129,0.669,0.193,1.037,0.193
					c0.419,0,0.774-0.061,1.064-0.182c0.29-0.121,0.539-0.278,0.745-0.469c0.147-0.132,0.274-0.3,0.38-0.502
					c0.107-0.202,0.189-0.428,0.248-0.678h-2.482V436.334z"/>
			</g>
			<g>
				<path style="fill:#FFFFFF;" d="M297.3,431.299c-0.006-1.224-0.959-2.121-2.189-2.14c-0.924-0.014-0.832,0.12-0.834-0.867
					c-0.003-1.097-0.007-2.194,0.003-3.292c0.003-0.379-0.112-0.691-0.362-0.976c-2.342-2.668-4.678-5.342-7.019-8.011
					c-0.12-0.137-0.275-0.244-0.414-0.366c-6.214,0-12.427,0-18.641,0c-0.794,0.293-1.14,0.868-1.138,1.709
					c0.01,3.748,0.004,7.496,0.004,11.243c0,0.556-0.003,0.589-0.55,0.551c-1.497-0.102-2.516,0.986-2.497,2.492
					c0.044,3.476,0.013,6.953,0.014,10.429c0.001,1.58,0.867,2.443,2.45,2.449c0.582,0.002,0.582,0.002,0.582,0.6
					c0,2.219-0.001,4.438,0.001,6.657c0.001,1.192,0.58,1.771,1.768,1.771c8.013,0.001,16.027,0.001,24.04,0
					c1.168,0,1.755-0.583,1.757-1.745c0.002-2.256,0-4.512,0.001-6.768c0-0.512,0.002-0.511,0.52-0.515
					c0.271-0.002,0.541,0.008,0.809-0.058c0.996-0.246,1.69-1.044,1.694-2.069C297.315,438.696,297.318,434.997,297.3,431.299z
					 M268.85,417.162c5.337,0,10.674,0,16.01,0c0.548,0,0.554,0.007,0.554,0.561c0.001,2.243-0.001,4.486,0.001,6.73
					c0.001,0.811,0.249,1.059,1.06,1.059c1.91,0.001,3.821,0,5.731,0.001c0.458,0,0.479,0.021,0.481,0.483
					c0.003,0.887,0.002,1.775,0,2.662c-0.001,0.477-0.024,0.498-0.504,0.499c-3.895,0.001-7.79,0-11.684,0
					c-3.882,0-7.765,0-11.647,0c-0.55,0-0.552-0.001-0.552-0.561c-0.001-3.624-0.001-7.247,0-10.871
					C268.299,417.166,268.303,417.162,268.85,417.162z M292.135,451.579c-3.883,0.001-7.766,0-11.65,0c-3.871,0-7.742,0-11.613,0
					c-0.572,0-0.574-0.002-0.574-0.579c-0.001-1.997-0.001-3.994,0.001-5.991c0-0.464,0.023-0.486,0.478-0.487
					c7.803-0.001,15.607-0.001,23.41,0c0.478,0,0.499,0.02,0.499,0.503c0.001,1.997,0.001,3.994,0,5.991
					C292.687,451.574,292.682,451.579,292.135,451.579z"/>
			</g>
			<g>
				<path style="fill:#FFFFFF;" d="M272.966,434.183v1.831h3.165v1.412h-3.165v1.831h3.518v1.412h-5.007v-7.897h5.007v1.412H272.966
					z"/>
				<path style="fill:#FFFFFF;" d="M277.852,440.669v-7.897h2.779c0.375,0,0.726,0.061,1.053,0.182
					c0.327,0.121,0.612,0.292,0.855,0.513c0.243,0.221,0.434,0.483,0.574,0.789c0.14,0.305,0.209,0.642,0.209,1.009
					c0,0.375-0.07,0.715-0.209,1.02c-0.14,0.305-0.331,0.568-0.574,0.789c-0.243,0.221-0.528,0.392-0.855,0.513
					c-0.327,0.121-0.678,0.182-1.053,0.182h-1.29v2.901H277.852z M280.653,436.356c0.389,0,0.684-0.111,0.882-0.331
					c0.199-0.22,0.298-0.474,0.298-0.761c0-0.14-0.024-0.276-0.072-0.408c-0.048-0.132-0.121-0.248-0.221-0.347
					c-0.099-0.099-0.222-0.178-0.37-0.237c-0.147-0.059-0.32-0.089-0.518-0.089h-1.312v2.173H280.653z"/>
				<path style="fill:#FFFFFF;" d="M286.797,440.845c-0.338,0-0.662-0.048-0.971-0.143c-0.309-0.095-0.592-0.239-0.849-0.43
					c-0.257-0.191-0.482-0.425-0.673-0.7c-0.191-0.276-0.342-0.597-0.452-0.965l1.401-0.551c0.103,0.397,0.283,0.726,0.541,0.987
					c0.257,0.261,0.595,0.392,1.015,0.392c0.154,0,0.303-0.02,0.447-0.061c0.143-0.04,0.272-0.099,0.386-0.176
					c0.114-0.077,0.204-0.175,0.27-0.292c0.066-0.118,0.1-0.254,0.1-0.408c0-0.147-0.026-0.279-0.077-0.397
					c-0.051-0.117-0.138-0.227-0.259-0.331c-0.121-0.103-0.279-0.202-0.474-0.298c-0.195-0.095-0.436-0.195-0.723-0.298
					l-0.485-0.176c-0.213-0.073-0.428-0.173-0.645-0.298c-0.217-0.125-0.414-0.276-0.59-0.452c-0.176-0.176-0.322-0.384-0.436-0.623
					c-0.114-0.239-0.171-0.509-0.171-0.81c0-0.309,0.061-0.597,0.182-0.866c0.121-0.268,0.294-0.503,0.518-0.706
					c0.224-0.202,0.493-0.36,0.805-0.474c0.312-0.114,0.66-0.171,1.042-0.171c0.397,0,0.741,0.053,1.031,0.16
					c0.29,0.107,0.537,0.243,0.739,0.408c0.202,0.165,0.365,0.348,0.491,0.546c0.125,0.199,0.217,0.386,0.276,0.563l-1.312,0.551
					c-0.074-0.221-0.208-0.419-0.403-0.596c-0.195-0.176-0.462-0.265-0.799-0.265c-0.324,0-0.592,0.075-0.805,0.226
					c-0.213,0.151-0.32,0.348-0.32,0.59c0,0.235,0.103,0.436,0.309,0.601c0.206,0.165,0.533,0.325,0.982,0.48l0.496,0.165
					c0.316,0.111,0.605,0.237,0.866,0.381c0.261,0.143,0.485,0.314,0.673,0.513c0.187,0.199,0.331,0.425,0.43,0.678
					c0.099,0.254,0.149,0.546,0.149,0.877c0,0.412-0.083,0.767-0.248,1.064c-0.165,0.298-0.377,0.542-0.634,0.734
					c-0.258,0.191-0.548,0.335-0.872,0.43C287.422,440.797,287.105,440.845,286.797,440.845z"/>
			</g>
			<g>
				<path style="fill:#FFFFFF;" d="M321.394,439.168l4.004-4.985h-3.827v-1.412h5.559v1.5l-3.96,4.985h4.004v1.412h-5.779V439.168z"
					/>
				<path style="fill:#FFFFFF;" d="M328.409,432.771h1.489v7.897h-1.489V432.771z"/>
				<path style="fill:#FFFFFF;" d="M331.486,440.669v-7.897h2.779c0.375,0,0.726,0.061,1.053,0.182
					c0.327,0.121,0.612,0.292,0.855,0.513s0.434,0.483,0.574,0.789c0.14,0.305,0.209,0.642,0.209,1.009
					c0,0.375-0.07,0.715-0.209,1.02c-0.14,0.305-0.331,0.568-0.574,0.789c-0.243,0.221-0.528,0.392-0.855,0.513
					c-0.327,0.121-0.678,0.182-1.053,0.182h-1.29v2.901H331.486z M334.288,436.356c0.389,0,0.684-0.111,0.882-0.331
					c0.199-0.22,0.298-0.474,0.298-0.761c0-0.14-0.024-0.276-0.072-0.408c-0.048-0.132-0.121-0.248-0.221-0.347
					c-0.099-0.099-0.222-0.178-0.37-0.237c-0.147-0.059-0.32-0.089-0.518-0.089h-1.312v2.173H334.288z"/>
			</g>
		</g>
		<g style="opacity:0.61;">
			<path style="fill:#FFFFFF;" d="M300.133,433.27h9.067v2.242h-9.067V433.27z M300.133,437.136h9.067v2.243h-9.067V437.136z"/>
		</g>
	</g>
	<g style="opacity:0.61;">
		<path style="fill:#FFFFFF;" d="M156.756,478.878h1.607c1.263,0,2.114,0.812,2.114,1.974c0,1.161-0.851,1.973-2.114,1.973h-1.607
			V478.878z M158.34,482.464c1.049,0,1.725-0.665,1.725-1.612c0-0.947-0.677-1.613-1.725-1.613h-1.167v3.225H158.34z"/>
		<path style="fill:#FFFFFF;" d="M165.139,480.851c0-1.15,0.879-2.007,2.075-2.007c1.184,0,2.069,0.851,2.069,2.007
			c0,1.156-0.885,2.007-2.069,2.007C166.019,482.858,165.139,482.002,165.139,480.851z M168.866,480.851
			c0-0.942-0.705-1.635-1.652-1.635c-0.953,0-1.663,0.693-1.663,1.635c0,0.941,0.71,1.635,1.663,1.635
			C168.162,482.486,168.866,481.793,168.866,480.851z"/>
		<path style="fill:#FFFFFF;" d="M179.596,478.878l-1.331,3.947h-0.44l-1.156-3.366l-1.161,3.366h-0.434l-1.331-3.947h0.429
			l1.139,3.394l1.178-3.394h0.389l1.161,3.411l1.156-3.411H179.596z"/>
		<path style="fill:#FFFFFF;" d="M187.731,478.878v3.947h-0.344l-2.537-3.202v3.202h-0.417v-3.947h0.344l2.543,3.203v-3.203H187.731
			z"/>
		<path style="fill:#FFFFFF;" d="M193.093,478.878h0.417v3.586h2.21v0.361h-2.627V478.878z"/>
		<path style="fill:#FFFFFF;" d="M200.061,480.851c0-1.15,0.879-2.007,2.075-2.007c1.184,0,2.069,0.851,2.069,2.007
			c0,1.156-0.885,2.007-2.069,2.007C200.941,482.858,200.061,482.002,200.061,480.851z M203.788,480.851
			c0-0.942-0.705-1.635-1.652-1.635c-0.953,0-1.663,0.693-1.663,1.635c0,0.941,0.71,1.635,1.663,1.635
			C203.083,482.486,203.788,481.793,203.788,480.851z"/>
		<path style="fill:#FFFFFF;" d="M211.636,481.77h-2.199l-0.474,1.054h-0.434l1.804-3.947h0.412l1.804,3.947h-0.44L211.636,481.77z
			 M211.484,481.432l-0.947-2.12l-0.947,2.12H211.484z"/>
		<path style="fill:#FFFFFF;" d="M217.28,478.878h1.607c1.263,0,2.114,0.812,2.114,1.974c0,1.161-0.851,1.973-2.114,1.973h-1.607
			V478.878z M218.864,482.464c1.049,0,1.725-0.665,1.725-1.612c0-0.947-0.677-1.613-1.725-1.613h-1.167v3.225H218.864z"/>
		<path style="fill:#FFFFFF;" d="M234.041,481.77h-2.199l-0.474,1.054h-0.434l1.804-3.947h0.412l1.804,3.947h-0.44L234.041,481.77z
			 M233.889,481.432l-0.947-2.12l-0.947,2.12H233.889z"/>
		<path style="fill:#FFFFFF;" d="M239.685,478.878h0.417v3.586h2.21v0.361h-2.627V478.878z"/>
		<path style="fill:#FFFFFF;" d="M247.082,478.878h0.417v3.586h2.21v0.361h-2.627V478.878z"/>
		<path style="fill:#FFFFFF;" d="M260.449,479.239v1.551h2.041v0.361h-2.041v1.675h-0.417v-3.947h2.706v0.361H260.449z"/>
		<path style="fill:#FFFFFF;" d="M267.678,478.878h0.417v3.947h-0.417V478.878z"/>
		<path style="fill:#FFFFFF;" d="M273.456,478.878h0.417v3.586h2.21v0.361h-2.627V478.878z"/>
		<path style="fill:#FFFFFF;" d="M283.644,482.464v0.361h-2.791v-3.947h2.706v0.361h-2.289v1.404h2.041v0.355h-2.041v1.466H283.644z
			"/>
		<path style="fill:#FFFFFF;" d="M294.672,479.239v1.551h2.041v0.361h-2.041v1.675h-0.417v-3.947h2.706v0.361H294.672z"/>
		<path style="fill:#FFFFFF;" d="M301.5,480.851c0-1.15,0.879-2.007,2.075-2.007c1.184,0,2.069,0.851,2.069,2.007
			c0,1.156-0.885,2.007-2.069,2.007C302.379,482.858,301.5,482.002,301.5,480.851z M305.226,480.851
			c0-0.942-0.705-1.635-1.652-1.635c-0.953,0-1.663,0.693-1.663,1.635c0,0.941,0.71,1.635,1.663,1.635
			C304.522,482.486,305.226,481.793,305.226,480.851z"/>
		<path style="fill:#FFFFFF;" d="M313.351,482.825l-0.902-1.269c-0.102,0.011-0.203,0.017-0.316,0.017h-1.06v1.252h-0.417v-3.947
			h1.477c1.004,0,1.613,0.507,1.613,1.353c0,0.62-0.327,1.054-0.902,1.24l0.964,1.353H313.351z M313.328,480.231
			c0-0.632-0.417-0.992-1.207-0.992h-1.048v1.979h1.048C312.911,481.218,313.328,480.851,313.328,480.231z"/>
		<path style="fill:#FFFFFF;" d="M322.907,478.878v3.947h-0.4v-3.158l-1.551,2.656h-0.197l-1.551-2.639v3.14h-0.4v-3.947h0.344
			l1.714,2.926l1.697-2.926H322.907z"/>
		<path style="fill:#FFFFFF;" d="M330.744,481.77h-2.199l-0.473,1.054h-0.434l1.804-3.947h0.411l1.804,3.947h-0.44L330.744,481.77z
			 M330.592,481.432l-0.947-2.12l-0.947,2.12H330.592z"/>
		<path style="fill:#FFFFFF;" d="M336.957,479.239h-1.387v-0.361h3.192v0.361h-1.387v3.586h-0.417V479.239z"/>
		<path style="fill:#FFFFFF;" d="M343.063,482.346l0.164-0.321c0.282,0.276,0.784,0.479,1.302,0.479c0.739,0,1.06-0.31,1.06-0.699
			c0-1.083-2.43-0.417-2.43-1.877c0-0.581,0.451-1.083,1.455-1.083c0.446,0,0.908,0.13,1.224,0.35l-0.141,0.333
			c-0.338-0.22-0.733-0.327-1.083-0.327c-0.722,0-1.043,0.321-1.043,0.716c0,1.083,2.43,0.429,2.43,1.866
			c0,0.581-0.462,1.077-1.472,1.077C343.937,482.858,343.356,482.65,343.063,482.346z"/>
	</g>
</g>
<g>
</g>
<g>
	<g>
		<g>
			<g>
				<path style="fill:#009849;" d="M121.983,322.491c-25.905,0-50.259-10.088-68.577-28.405C35.088,275.768,25,251.413,25,225.508
					c0-25.905,10.088-50.26,28.406-68.577c18.318-18.317,42.672-28.406,68.577-28.406s50.26,10.088,68.577,28.406
					c18.318,18.318,28.406,42.672,28.406,68.577s-10.088,50.259-28.406,68.577C172.242,312.403,147.888,322.491,121.983,322.491z
					 M121.983,130.548c-52.361,0-94.96,42.599-94.96,94.96c0,52.361,42.599,94.96,94.96,94.96s94.96-42.599,94.96-94.96
					C216.943,173.147,174.344,130.548,121.983,130.548z"/>
			</g>
		</g>
		<g>
			<circle style="fill:#EB1D25;" cx="121.983" cy="225.508" r="64.409"/>
		</g>
		<g>
			<path style="fill:none;stroke:#F9EC25;stroke-width:2.0623;stroke-miterlimit:10;" d="M72.127,286.909"/>
		</g>
		<g>
			<g>
				<path style="fill:#009849;" d="M99.259,297.631l-2.436-2.218c-7.838-2.819-15.192-6.981-21.66-12.24l1.454,2.616
					c0.122,0.151,0.242,0.304,0.372,0.446c0.286,0.684,0.679,1.266,1.169,1.74c0.14,0.131,0.383,0.332,0.73,0.604
					c0.355,0.259,0.82,0.578,1.39,0.967c0.437,0.297,0.805,0.592,1.107,0.888c0.305,0.29,0.554,0.565,0.729,0.852
					c0.353,0.569,0.439,1.147,0.252,1.732c-1.183-0.032-2.143-0.065-2.813-0.162c-0.674-0.091-1.092-0.189-1.246-0.29
					c-0.308-0.201-0.562-0.6-0.751-1.19c-0.096-0.348-0.079-0.695,0.056-1.052l-2.528-0.6c0.302,1.012,0.621,1.853,0.942,2.512
					c0.32,0.661,0.668,1.103,0.992,1.382c0.272,0.328,0.83,0.768,1.674,1.319c0.35,0.212,0.624,0.366,0.819,0.468
					c0.367,0.182,1.026,0.319,1.962,0.399c0.464,0.046,1.008,0.059,1.623,0.047c0.612-0.009,1.291-0.036,2.031-0.083
					c0.707-0.035,1.391,0.086,2.046,0.402c0.463,0.225,0.914,0.56,1.359,1.008c0.442,0.455,0.697,0.763,0.725,1.002l-1.804,3.999
					c0.817,0.895,1.638,1.832,2.505,2.711l3.739-9.261c0.921,0.35,1.836,0.718,2.761,1.057L99.259,297.631z M89.869,296.822
					c-0.559-0.694-1.054-1.325-1.543-1.792c-0.486-0.475-0.95-0.82-1.401-1.039c-0.287-0.153-1.083-0.371-2.416-0.661l0.009-0.017
					c0.373-0.675,0.065-1.522-0.83-2.63l0.878,0.523c0.292,0.176,0.598,0.327,0.896,0.492l1.798,0.972
					c0.602,0.32,1.222,0.602,1.832,0.905c0.615,0.294,1.218,0.612,1.848,0.871L89.869,296.822z"/>
			</g>
			<g>
				<path style="fill:#009849;" d="M117.479,300.956c-1.001-0.519-1.988-0.984-2.948-1.556c-3.554-0.331-7.075-0.963-10.534-1.826
					c-3.459-0.864-6.859-1.966-10.163-3.31l2.378,2.335c4.087,1.485,8.304,2.606,12.587,3.36l-0.052,0.297
					c-4.285-0.171-8.806-0.32-13.684-0.621c0.84,0.963,1.711,1.922,2.605,2.897c0.986,0.321,1.933,0.668,2.84,1.061
					c0.452,0.195,0.899,0.387,1.343,0.578c0.44,0.196,0.871,0.402,1.294,0.619c0.351,0.18,0.684,0.362,1.001,0.548
					c0.318,0.176,0.621,0.348,0.905,0.527c0.569,0.357,1.068,0.729,1.497,1.116c0.07,0.059,0.286,0.28,0.656,0.664
					c0.371,0.381,0.901,0.894,1.6,1.578l1.695,0.929l1.309-9.73c0.942,0.119,1.888,0.211,2.831,0.319
					c0.236,0.025,0.472,0.055,0.708,0.075l0.711,0.046L117.479,300.956z M103.328,307.371c0.596-0.154,0.837-0.444,0.723-0.81
					c-0.101-0.287-0.405-0.594-0.918-0.899c-0.512-0.306-1.087-0.538-1.729-0.695c-0.737-0.168-1.38-0.259-1.957-0.193
					c-0.577,0.062-0.91,0.237-0.996,0.526c-0.089,0.302,0.115,0.653,0.622,1.056c0.253,0.201,0.548,0.383,0.886,0.544
					c0.337,0.162,0.724,0.277,1.147,0.385C101.986,307.5,102.729,307.529,103.328,307.371z M107.703,306.188
					c-0.767-0.717-1.726-1.419-2.874-2.09c-0.575-0.334-1.185-0.712-1.849-1.059c-0.331-0.177-0.674-0.352-1.029-0.526
					c-0.178-0.086-0.358-0.173-0.541-0.26c-0.182-0.093-0.366-0.188-0.552-0.283c0.636,0.011,1.281-0.022,1.917-0.025
					c0.636-0.006,1.268-0.002,1.897,0.012c1.263-0.001,2.519,0.004,3.764,0.066L107.703,306.188z"/>
			</g>
			<g>
				<path style="fill:#009849;" d="M134.451,303.824c-0.452,0.064-0.958,0.175-1.52,0.331c-0.948,0.483-1.408,0.92-1.36,1.327
					c0.043,0.366,0.434,0.642,1.18,0.797c0.746,0.161,1.575,0.176,2.477,0.047c1.268-0.228,2.266-0.633,2.977-1.198
					c0.655-0.534,0.915-1.073,0.803-1.587c-0.053-0.246-0.188-0.499-0.4-0.761c-0.58-0.667-1.689-1.188-3.284-1.536
					c-0.857-0.166-1.725-0.311-2.598-0.352c-0.437-0.022-0.875-0.022-1.317-0.001c-0.443,0.013-0.891,0.03-1.342,0.078l-0.032-0.3
					c4.066-0.43,8.094-1.19,12.035-2.272c-1.083-0.169-2.144-0.319-3.206-0.55c-4.515,1.045-9.126,1.672-13.762,1.875
					c-4.638,0.18-9.293-0.053-13.879-0.723c0.928,0.611,1.887,1.127,2.858,1.685c4.302,0.443,8.647,0.527,12.965,0.243l0.027,0.414
					c-4.524,0.927-8.731,1.78-12.69,2.756c0.557,0.377,1.126,0.704,1.699,1.046l1.742,1.023c0.508,0.065,1.009,0.101,1.499,0.156
					c0.491,0.054,0.972,0.119,1.445,0.193c0.473,0.072,0.937,0.167,1.392,0.248c0.456,0.077,0.903,0.164,1.343,0.262
					c0.754,0.177,1.672,0.545,2.772,0.965c0.841,0.327,1.453,0.618,1.825,0.872c0.17,0.124,0.533,0.488,1.101,1.037l1.867,0.513
					l-0.823-7.773c0.399-0.044,0.788-0.07,1.168-0.078c0.378-0.017,0.746-0.028,1.105-0.014c0.718,0.025,1.4,0.121,2.052,0.289
					c0.979,0.228,1.574,0.52,1.769,0.909C135.796,303.669,135.174,303.724,134.451,303.824z M127.448,307.008
					c-0.439-0.235-0.914-0.453-1.423-0.653c-0.255-0.102-0.518-0.194-0.79-0.291c-0.272-0.103-0.553-0.201-0.843-0.296
					c-1.159-0.383-2.456-0.674-3.895-1.013c0.733-0.201,1.282-0.341,1.652-0.457c0.368-0.119,0.56-0.181,0.576-0.187
					c0.601-0.163,1.275-0.328,2.019-0.494c0.745-0.159,1.557-0.387,2.44-0.584L127.448,307.008z"/>
			</g>
			<g>
				<path style="fill:#009849;" d="M138.864,297.844c-0.493,0.079-1.092,0.201-1.799,0.368c-0.711,0.145-1.533,0.315-2.464,0.533
					l1.592,0.36c0.535,0.12,1.076,0.244,1.613,0.333c0.311-0.07,0.537-0.122,0.679-0.153c0.608-0.137,1.18-0.199,1.722-0.185
					c0.537-0.007,1.043,0.061,1.522,0.206c0.394,0.115,0.644,0.354,0.743,0.717l1.89,6.888c1.192,0.179,2.38,0.281,3.59,0.392
					l-3.088-9.736c0.967-0.282,1.911-0.635,2.861-0.971c0.956-0.32,1.883-0.715,2.819-1.085c-1.101-0.038-2.176-0.059-3.263-0.16
					l-1.495,0.532c-0.497,0.182-1.008,0.32-1.511,0.483c-0.223-0.049-0.398-0.093-0.527-0.133c-0.466-0.369-0.748-0.637-0.855-0.801
					c-0.57-0.022-1.148-0.086-1.719-0.141c0.28,1.02,0.617,1.933,1.02,2.737c-0.44-0.182-0.936-0.285-1.489-0.309
					c-0.277-0.013-0.566-0.002-0.872,0.021C139.526,297.755,139.202,297.79,138.864,297.844z"/>
			</g>
			<g>
				<path style="fill:#009849;" d="M166.671,286.49c-1.104,0.235-2.186,0.471-3.266,0.677c-5.919,3.99-12.422,7.099-19.227,9.229
					c0.547,0.057,1.103,0.125,1.656,0.171l1.664,0.109c4.092-1.466,8.059-3.285,11.842-5.431l0.149,0.262
					c-3.41,2.601-6.992,5.357-10.938,8.24c0.632,0.107,1.279,0.233,1.918,0.317l1.936,0.252c0.979-0.347,1.921-0.703,2.865-0.989
					c0.471-0.147,0.946-0.267,1.41-0.397c0.463-0.133,0.925-0.252,1.387-0.358c1.544-0.333,2.864-0.531,4.018-0.483
					c0.091,0.001,0.399,0.032,0.928,0.091c0.53,0.059,1.265,0.116,2.241,0.198c0.628-0.12,1.265-0.235,1.897-0.368l-5.198-8.328
					l2.389-1.553L166.671,286.49z M159.854,300.439c0.357-0.507,0.367-0.866,0.04-1.084c-0.264-0.164-0.691-0.198-1.279-0.104
					c-0.588,0.094-1.175,0.288-1.77,0.578c-0.689,0.309-1.232,0.672-1.634,1.093c-0.402,0.421-0.546,0.771-0.427,1.049
					c0.124,0.289,0.504,0.426,1.149,0.407c0.642-0.022,1.372-0.2,2.162-0.574C158.907,301.402,159.496,300.946,159.854,300.439z
					 M162.47,296.741c-1.05-0.066-2.231,0.014-3.544,0.228c-0.667,0.088-1.366,0.209-2.099,0.365
					c-0.366,0.082-0.741,0.167-1.126,0.254c-0.39,0.081-0.788,0.17-1.194,0.267c1.962-1.646,3.887-3.276,5.871-4.789L162.47,296.741
					z"/>
			</g>
		</g>
		<g>
			<g>
				<path style="fill:#009849;" d="M39.201,213.945c-0.081,0.572-0.123,1.109-0.108,1.613c0.03,0.505,0.104,0.975,0.22,1.407
					c0.202,0.694,0.565,1.325,1.089,1.887c0.524,0.562,1.037,0.853,1.539,0.888c0.738,0.052,1.366-0.409,1.883-1.36
					c0.131-0.215,0.21-0.456,0.235-0.726c0.039-0.358-0.085-0.97-0.311-1.843c-0.208-0.871-0.298-1.405-0.272-1.585
					c0.055-0.384,0.161-0.564,0.316-0.541c0.218,0.032,0.613,0.602,1.19,1.67c0.302,0.58,0.556,1.056,0.777,1.437
					c0.213,0.38,0.366,0.66,0.459,0.846l1.061-1.066c0.361-0.35,0.741-0.692,1.11-1.03c-0.75-1.286-1.439-2.29-2.056-2.965
					c-0.594-0.672-1.142-1.02-1.647-1.019c-0.708,0.01-1.321,0.288-1.753,0.854c-0.435,0.565-0.734,1.41-0.895,2.524
					c-0.058,0.437-0.107,0.828-0.084,1.181c-0.694-0.782-0.898-1.933-0.688-3.431c0.05-0.327,0.133-0.655,0.278-0.977
					c0.15-0.321,0.344-0.64,0.581-0.955c0.43-0.565,1.058-1.056,1.882-1.462c0.824-0.405,1.479-0.543,1.971-0.436l6.289,1.529
					c0.792-0.637,1.613-1.245,2.407-1.837l-12.291-3.086l0.303-1.239c0.11-0.411,0.237-0.817,0.355-1.225l0.722-2.447
					c-0.759,0.626-1.523,1.267-2.291,1.925c-0.13,0.414-0.255,0.821-0.37,1.22c-0.095,0.405-0.188,0.801-0.279,1.188
					c-0.12,0.293-0.216,0.456-0.289,0.487c-0.554,0.213-0.956,0.168-1.203-0.145l-1.627,1.597c1.705,0.376,2.977,0.607,3.813,0.696
					c0.615,0.068,1.144,0.126,1.585,0.174c-1.019,0.259-1.821,0.918-2.494,1.96c-0.333,0.522-0.627,1.14-0.881,1.854
					C39.507,212.226,39.332,213.04,39.201,213.945z"/>
			</g>
			<g>
				<path style="fill:#009849;" d="M47.755,200.47c-0.477,0.128-0.911,0.13-1.3,0.002c-0.418-0.138-0.764-0.534-1.032-1.202
					c-0.268-0.667-0.258-1.416,0.027-2.234c0.363-0.938,1.001-1.684,1.876-2.223c0.52-0.324,1.016-0.515,1.49-0.578
					c0.482-0.06,0.942,0.008,1.375,0.196l6.084,2.638c0.87-0.464,1.732-0.91,2.584-1.34l-11.158-5.275
					c0.34-0.787,0.755-1.538,1.141-2.303l0.588-1.143c0.194-0.382,0.389-0.763,0.609-1.131c-0.453,0.222-0.886,0.46-1.318,0.704
					l-1.308,0.737c-0.321,0.635-0.659,1.261-0.964,1.903c-0.396,0.345-0.677,0.561-0.842,0.644
					c-0.165,0.083-0.416,0.101-0.751,0.054c-0.199-0.011-0.568,0.128-1.111,0.425c-0.316,0.21-0.628,0.41-0.936,0.601
					c1.646,0.828,2.801,1.328,3.46,1.512c0.586,0.157,1.11,0.296,1.572,0.42c-1.259,0.261-2.21,0.738-2.911,1.384
					c-0.112,0.11-0.409,0.428-0.894,0.962c-0.24,0.32-0.48,0.719-0.652,1.221c-0.135,0.387-0.26,0.842-0.375,1.364
					c-0.151,0.7-0.203,1.359-0.153,1.973c0.049,0.614,0.239,1.195,0.504,1.721c0.493,0.943,1.205,1.532,2.127,1.799
					c0.907,0.262,1.792,0.127,2.646-0.378c0.474-0.273,0.861-0.651,1.248-1.108c0.38-0.459,0.709-1.014,0.986-1.669
					c0.166-0.382,0.28-0.767,0.345-1.157c0.072-0.387,0.111-0.774,0.089-1.171c-0.049-0.891-0.34-1.455-0.879-1.676
					c-0.189-0.077-0.411-0.095-0.666-0.052c-0.814,0.132-1.421,0.683-1.798,1.641c-0.429,1.234-0.278,1.976,0.451,2.225
					c0.134,0.046,0.283,0.097,0.446,0.154C48.227,200.286,48.026,200.406,47.755,200.47z"/>
			</g>
			<g>
				<path style="fill:#009849;" d="M60.604,170.236c-0.679,0.236-1.268,0.602-1.844,1.023c-0.57,0.427-1.099,0.934-1.582,1.516
					c-0.889,1.151-1.49,2.34-1.812,3.524c-0.285,1.212-0.279,2.428,0.012,3.626c0.087,0.342,0.229,0.577,0.424,0.709
					c0.261,0.177,0.617,0.176,1.066,0.002c0.449-0.173,0.777-0.461,0.986-0.868c0.463-1.202,0.776-1.827,0.845-1.917
					c0.295-0.406,0.692-0.418,1.189-0.034c0.199,0.153,0.295,0.312,0.288,0.476c-0.008,0.755-0.038,1.48-0.006,2.238
					c0.398-0.347,0.836-0.66,1.256-0.984l1.264-0.958c0.014-1.146,0.111-2.257,0.2-3.405l0.151-1.731
					c0.05-0.585,0.139-1.144,0.213-1.724c0.657-0.219,1.504-0.157,2.532,0.196l4.318,4.417c0.581-0.073,1.079-0.166,1.537-0.242
					c0.457-0.077,0.848-0.165,1.175-0.264l-8.567-8.654c0.597-0.58,1.185-1.169,1.79-1.741l1.862-1.664
					c-0.952,0.132-1.915,0.275-2.889,0.429c-0.188,0.116-0.537,0.448-1.073,0.968c-0.327,0.32-0.577,0.565-0.749,0.733l-0.511,0.204
					c-0.238,0.035-0.514-0.069-0.828-0.312c-0.108-0.004-0.202-0.011-0.281-0.021c-0.593,0.204-1.156,0.445-1.733,0.679l3.23,2.73
					l1.052,0.671C62.985,169.666,61.814,169.791,60.604,170.236z M57.685,176.693c-0.069-0.49,0-1.012,0.206-1.567
					c0.208-0.553,0.538-1.149,1.051-1.732c0.457-0.538,1.08-0.954,1.857-1.237c-0.153,1.307-0.31,2.575-0.407,3.853
					C59.418,175.574,58.513,175.804,57.685,176.693z"/>
			</g>
			<g>
				<path style="fill:#009849;" d="M73.522,176.467c-0.697-0.705-1.259-1.145-1.691-1.318c-0.251-0.107-0.574-0.184-0.973-0.229
					c-0.4-0.046-0.875-0.06-1.408-0.02c-0.461-0.036-1.208,0.168-2.259,0.625c-0.278,0.166-0.552,0.339-0.819,0.524
					c-0.257,0.194-0.509,0.397-0.757,0.609c-0.494,0.424-0.968,0.884-1.419,1.377c-0.114,0.124-0.224,0.245-0.332,0.362
					c-0.102,0.122-0.201,0.24-0.297,0.355c-0.193,0.229-0.374,0.443-0.544,0.643c-0.34,0.399-0.635,0.739-0.885,1.02
					c-0.508,0.556-0.804,0.897-0.935,0.99c-1.101,0.774-2.007,0.939-2.694,0.467c-0.129-0.089-0.24-0.26-0.331-0.513
					c-0.926,0.337-1.445,0.565-1.51,0.683c-0.061,0.095-0.07,0.197-0.027,0.306c0.134,0.17,0.261,0.294,0.379,0.372
					c0.463,0.386,0.794,0.643,0.991,0.773c0.714,0.47,1.498,0.644,2.388,0.574c0.779-0.067,1.562-0.399,2.347-0.997
					c0.71-0.55,1.375-1.182,1.938-1.96c0.963-1.393,1.77-2.328,2.265-2.922c0.485-0.575,0.95-1.029,1.423-1.332
					c0.463-0.311,0.9-0.502,1.308-0.572c0.176-0.004,0.73,0.053,1.645,0.189C72.236,176.608,72.983,176.628,73.522,176.467z"/>
			</g>
			<g>
				<path style="fill:#009849;" d="M76.737,160.867c-0.168-0.002-0.337,0.055-0.499,0.179c-0.11,0.121-0.311,0.387-0.601,0.797
					c-0.846,1.261-1.41,1.97-1.685,2.203c-0.469,0.382-0.822,0.427-1.059,0.132c-0.177-0.221-0.252-0.773-0.21-1.67
					c0.041-0.899,0.228-1.457,0.495-1.722c0.734,0.044,1.146,0.081,1.249,0.103c0.265,0.029,0.609-0.01,1.03-0.117
					c0.211-0.053,0.441-0.123,0.69-0.21c0.253-0.081,0.531-0.171,0.826-0.281c0.591-0.217,1.178-0.472,1.763-0.766
					c0.293-0.146,0.583-0.304,0.876-0.468c0.3-0.153,0.599-0.316,0.899-0.489c0.08,1.332,0.401,2.398,0.925,3.22
					c0.321,0.504,0.894,1.095,1.703,1.782c0.645,0.547,1.287,1.106,1.925,1.675c0.11,0.062,0.396,0.018,0.854-0.132
					c0.405-0.118,0.702-0.235,0.894-0.352c0.103-0.065,0.199-0.204,0.292-0.413c-1.392-0.8-2.333-1.543-2.793-2.319
					c-0.209-0.351-0.41-0.772-0.601-1.264c-0.294-0.539-0.398-1.295-0.291-2.281c0.104-0.901,0.36-1.729,0.761-2.486
					c-0.696-0.086-1.349-0.16-1.956-0.223c-0.61-0.066-1.151-0.083-1.659-0.113c-1.23,1.176-2.063,1.889-2.479,2.23
					c-0.445,0.337-1.107,0.678-1.996,1.029c-0.953,0.381-1.478,0.514-1.628,0.306c-0.028-0.038-0.022-0.111,0.017-0.218
					c0.218-0.383,0.412-0.659,0.574-0.841c3.22-2.259,6.625-4.245,10.127-6.03c-0.987-0.149-1.958-0.231-2.95-0.319l-1.33,0.727
					l-0.665,0.364l-0.648,0.393l-2.59,1.574c-1.679,1.124-3.375,2.225-4.977,3.458c-3.236,2.417-6.328,5.036-9.168,7.911
					c0.991-0.2,1.971-0.388,2.939-0.565c0.776-0.716,1.572-1.412,2.358-2.118l0.592-0.527l0.614-0.501l1.229-1.001
					c-0.049,0.203-0.09,0.358-0.124,0.466c-0.292,1.395-0.178,2.357,0.299,2.922c0.152,0.18,0.342,0.351,0.567,0.512
					c0.789,0.514,1.845,0.609,3.144,0.301c0.294-0.107,0.572-0.236,0.838-0.386c0.274-0.139,0.533-0.299,0.78-0.482
					c0.583-0.427,1.201-1.114,1.895-2.042c0.073-0.087,0.138-0.149,0.193-0.186c0.146-0.098,0.308-0.107,0.484-0.027
					c0.176,0.081,0.308,0.187,0.397,0.316c0.245,0.356,0.065,0.865-0.476,1.589c-0.4,0.552-0.881,1.056-1.448,1.514
					c-0.335,0.286-0.742,0.489-1.176,0.676c-0.439,0.181-0.936,0.304-1.494,0.373c-0.949,0.105-1.809,0.038-2.561-0.193
					c-0.29-0.099-0.845-0.373-1.678-0.811c-0.589-0.296-1.153-0.795-1.682-1.504c-0.223,0.03-0.785,0.237-1.698,0.631
					c0.701,0.766,1.339,1.43,1.914,1.992c0.575,0.562,1.32,1.026,2.22,1.403c0.948,0.398,1.855,0.611,2.721,0.637
					c0.999,0.05,1.943-0.026,2.801-0.285c0.431-0.127,0.842-0.298,1.24-0.508c0.41-0.195,0.803-0.432,1.182-0.713
					c0.836-0.614,1.419-1.369,1.833-2.191c0.401-0.838,0.519-1.666,0.346-2.479c-0.075-0.31-0.193-0.591-0.357-0.841
					c-0.49-0.751-1.391-1.216-2.747-1.366c-0.531-0.06-0.963-0.045-1.29,0.042L76.737,160.867z"/>
			</g>
			<g>
				<path style="fill:#009849;" d="M82.073,151.898c-0.775,0.339-1.865,0.917-3.175,1.87c0.997,0.021,1.974,0.042,2.969,0.125
					c0.228-0.125,0.394-0.215,0.498-0.272c0.894-0.482,1.791-0.613,2.696-0.331c0.374,0.115,0.665,0.384,0.877,0.804l4.029,7.967
					c0.887,0.215,1.759,0.437,2.615,0.665l-5.423-11.558c0.731-0.375,1.497-0.673,2.248-1.005c0.757-0.318,1.502-0.664,2.269-0.957
					c-0.969-0.22-1.931-0.38-2.92-0.562c-0.821,0.357-1.651,0.694-2.449,1.101c-0.211-0.055-0.38-0.104-0.507-0.147
					c-0.524-0.428-0.863-0.735-1.009-0.926l-1.621-0.05c0.596,1.179,1.21,2.228,1.832,3.15c-0.438-0.184-0.913-0.286-1.398-0.258
					C83.119,151.541,82.607,151.669,82.073,151.898z"/>
			</g>
			<g>
				<path style="fill:#009849;" d="M111.348,144.125l-1.42-0.659l-1.438-0.595c-3.879,0.588-7.694,1.551-11.444,2.693
					c-0.933,0.303-1.869,0.597-2.798,0.91l-2.754,1.034c-0.926,0.326-1.813,0.748-2.717,1.126l-1.351,0.582
					c-0.453,0.188-0.885,0.421-1.329,0.629c0.498,0.066,0.989,0.126,1.483,0.203l1.482,0.26c3.531-1.583,7.199-2.846,10.923-3.887
					l1.4-0.379c0.467-0.123,0.931-0.263,1.406-0.358l2.833-0.625c0.47-0.113,0.948-0.187,1.425-0.269l1.43-0.244l1.43-0.243
					C110.388,144.237,110.869,144.186,111.348,144.125z M108.085,150.458c-0.094-0.511-0.296-1.003-0.613-1.475
					c-0.637-0.901-1.406-1.523-2.317-1.919c-0.455-0.198-0.945-0.336-1.469-0.416c-0.522-0.074-1.084-0.116-1.663-0.041
					c-0.656,0.08-1.201,0.178-1.631,0.295c-0.577,0.157-1.098,0.363-1.56,0.619c-0.455,0.276-0.85,0.604-1.183,0.975
					c-0.729,0.781-0.955,1.54-0.705,2.286c0.06,0.179,0.16,0.37,0.299,0.573c0.376,0.523,0.854,0.853,1.43,0.989
					c0.288,0.068,0.601,0.088,0.94,0.059c0.338-0.031,0.703-0.109,1.102-0.21c1.839-0.497,2.617-1.37,2.336-2.614
					c-0.106-0.427-0.332-0.774-0.682-1.038c0.21-0.089,0.381-0.152,0.512-0.188c0.705-0.163,1.376-0.032,1.994,0.378
					c0.54,0.364,0.859,0.81,0.97,1.333c0.137,0.646-0.131,1.294-0.783,1.937c-0.915,0.855-1.801,1.459-2.729,1.709
					c-0.521,0.141-1.032,0.23-1.536,0.269c-0.5,0.055-0.989,0.071-1.477,0.029c-0.972-0.075-1.935-0.377-2.879-0.836
					c-0.808-0.372-1.674-0.892-2.607-1.557c-0.366-0.277-1.158-0.874-2.375-1.793l-1.876,0.264c0.619,0.603,1.305,1.22,2.05,1.854
					c0.373,0.318,0.759,0.637,1.161,0.966c0.407,0.332,0.826,0.675,1.258,1.028c0.566,0.48,1.451,0.975,2.62,1.497
					c0.409,0.186,0.765,0.333,1.078,0.459c0.315,0.131,0.582,0.228,0.802,0.29c0.642,0.192,1.357,0.265,2.147,0.216
					c0.784-0.065,1.528-0.134,2.206-0.325c0.53-0.143,1.056-0.356,1.585-0.639c0.531-0.274,1.072-0.582,1.616-0.981
					c0.784-0.572,1.342-1.209,1.677-1.868C108.12,151.934,108.226,151.223,108.085,150.458z"/>
			</g>
			<g>
				<path style="fill:#009849;" d="M118.734,146.45c0.724,0.439,1.225,0.702,1.52,0.789l-0.035-0.046
					c0.217,0.136,0.548,0.256,0.993,0.359c0.222,0.052,0.472,0.099,0.751,0.142c0.278,0.055,0.585,0.111,0.92,0.163
					c0.925-0.653,1.428-1.01,1.474-1.072c0.557-0.442,0.852-0.883,0.869-1.323c0.01-0.251-0.144-0.704-0.473-1.358
					c-0.351-0.733-0.676-1.103-0.96-1.11l-0.01,0.472c2.255,0.013,4.503,0.215,6.75,0.399c-0.778-0.628-1.574-1.23-2.387-1.847
					c-7.563-0.588-15.195-0.066-22.646,1.381c0.969,0.361,1.931,0.777,2.87,1.169l1.611-0.274l1.622-0.2l1.622-0.197
					c0.271-0.031,0.54-0.069,0.811-0.094l0.815-0.06c1.086-0.076,2.172-0.166,3.259-0.228l3.265-0.079
					c0.354-0.006,0.59,0.044,0.708,0.177c0.329,0.37,0.49,0.673,0.488,0.909c-0.006,0.731-0.425,1.182-1.246,1.465
					c-0.415-0.32-1.245-0.733-2.521-1.237c-0.242-0.1-0.488-0.187-0.737-0.261c-0.248-0.069-0.499-0.112-0.753-0.149
					c-0.508-0.07-1.026-0.085-1.552-0.047c-1.853,0.109-2.917,0.877-3.184,2.108c-0.133,0.634,0.082,1.151,0.624,1.553
					c0.542,0.402,1.248,0.536,2.137,0.487c0.577-0.042,1.083-0.272,1.528-0.691c0.445-0.419,0.66-0.848,0.635-1.288
					c-0.011-0.204-0.09-0.388-0.237-0.551C117.685,146.004,118.176,146.17,118.734,146.45z"/>
			</g>
			<g>
				<path style="fill:#009849;" d="M122.112,147.743c-0.067-0.002-0.055,0.101,0.033,0.308c0.156,0.319,0.231,0.541,0.231,0.667
					l-0.022,4.366c-0.104-0.081-0.177-0.138-0.219-0.171c-0.563-0.379-1.431-0.534-2.591-0.51c-0.19,0.004-0.506,0.012-0.948,0.022
					c-2.051,0.291-3.339,0.328-3.895,0.09c-0.639-0.25-1.008-0.76-1.094-1.533c-0.043-0.386,0.031-0.888,0.231-1.508l-1.044-0.39
					c-0.253-0.064-0.443,0.03-0.567,0.283c-0.385,0.823-0.52,1.576-0.427,2.262c0.113,0.826,0.561,1.573,1.312,2.242
					c0.405,0.396,1.058,0.661,1.956,0.809c0.8,0.181,1.558,0.229,2.289,0.143c0.152-0.019,0.362-0.054,0.63-0.106
					c0.268-0.055,0.594-0.121,0.981-0.178c0.692-0.125,1.235-0.194,1.624-0.203c0.883-0.024,1.552,0.167,1.995,0.618
					c0.322,0.387,0.559,0.715,0.714,0.987l1.087,0.806l0.234-6.816c0.048-1.383,0.03-2.155-0.055-2.315
					c-0.48-1.043-1.468-1.612-2.934-1.615c-1.006,0.024-1.667,0.158-1.979,0.402c-0.675,0.3-1.185,0.532-1.539,0.698
					c-0.736,0.653-1.186,1.088-1.373,1.307c-0.369,0.485-0.527,1.001-0.486,1.55c0.022,0.298,0.106,0.604,0.247,0.917
					c0.142,0.313,0.472,0.577,0.986,0.791c0.257,0.107,0.51,0.183,0.759,0.228c0.249,0.047,0.496,0.08,0.74,0.072
					c0.615-0.014,1.166-0.173,1.662-0.476c0.496-0.303,0.746-0.683,0.743-1.14c-0.002-0.33-0.156-0.617-0.466-0.862
					c-0.31-0.244-0.709-0.36-1.193-0.349c-0.087,0.002-0.198,0.005-0.33,0.008c0.103-0.235,0.262-0.447,0.478-0.638
					c0.502-0.337,0.889-0.563,1.156-0.678c0.357-0.102,0.603-0.154,0.737-0.157l-0.034-0.022
					C121.866,147.68,121.989,147.706,122.112,147.743z"/>
			</g>
			<g>
				<path style="fill:#009849;" d="M137.468,144.9c-0.7-0.685-1.417-1.372-2.15-2.061c-0.502-0.099-1.01-0.16-1.517-0.223
					l-1.522-0.194l-0.286-0.988c-0.18-0.562-0.558-1.208-1.148-1.94c-0.594-0.704-1.223-1.252-1.879-1.65
					c-0.596-0.361-1.161-0.664-1.692-0.908c-0.265-0.121-0.522-0.232-0.77-0.321c-0.248-0.082-0.487-0.149-0.716-0.203
					c-1.007-0.224-1.93-0.395-2.761-0.513c-0.416-0.056-0.809-0.111-1.18-0.132c-0.37-0.017-0.717-0.021-1.041-0.014
					c-0.893,0.02-1.778,0.105-2.651,0.254c-0.436,0.067-0.869,0.175-1.298,0.303c-0.429,0.125-0.854,0.266-1.274,0.423
					c-1.455,0.548-2.133,1.175-2.064,1.88c0.07,0.72,0.615,1.235,1.614,1.549c1.001,0.319,1.97,0.465,2.924,0.499
					c0.074,0.014,1.151,0.025,3.222,0.04c0.878-0.004,1.535,0.114,1.971,0.221c0.436,0.117,0.651,0.266,0.647,0.447
					c-0.003,0.173-0.534,0.514-1.565,1.024l3.189,0.08c0.182-0.341,0.281-0.654,0.293-0.937c0.029-1.549-1.357-2.469-4.177-2.661
					l-0.448-0.013c-0.685-0.024-1.401-0.04-2.15-0.049c-0.374-0.003-0.757-0.005-1.147-0.008c-0.39,0.001-0.787,0.031-1.192,0.048
					c-0.922,0.051-1.392-0.033-1.409-0.253c-0.023-0.298,0.635-0.583,1.988-0.853c1.002-0.186,1.938-0.249,2.797-0.277
					c2.011-0.083,3.727,0.181,5.122,0.549c1.397,0.355,2.47,0.99,3.221,1.724c0.855,0.838,1.298,1.433,1.364,1.785l0.16,0.628
					l-2.467-0.188l-1.234-0.091l-1.236-0.032c0.447,0.289,0.891,0.57,1.329,0.865l1.299,0.926l2.013,0.153l-0.996,10.739
					c0.658,0.582,1.289,1.251,1.909,1.877l1.515-12.344c0.901,0.121,1.806,0.215,2.704,0.36L137.468,144.9z"/>
			</g>
			<g>
				<path style="fill:#009849;" d="M161.166,153.361c-0.459-0.861-0.937-1.721-1.428-2.592c-5.619-2.848-11.559-5.083-17.687-6.562
					c0.683,0.706,1.331,1.479,1.968,2.23c3.621,0.961,7.136,2.281,10.583,3.736l-0.16,0.368c-0.214-0.043-0.433-0.087-0.658-0.131
					c-0.226-0.039-0.46-0.066-0.698-0.097c-0.476-0.06-0.971-0.114-1.484-0.162c-0.513-0.048-1.045-0.09-1.594-0.125
					c-0.545-0.045-1.129-0.025-1.718-0.03c-1.274,0.022-2.907,0.139-4.893,0.558l0.83,1.499l0.401,0.745l0.383,0.771
					c0.909,0.367,1.722,0.787,2.431,1.258c0.709,0.474,1.292,1.062,1.781,1.659c0.486,0.607,0.867,1.256,1.136,1.958
					c0.261,0.723,0.414,1.488,0.462,2.295c0.21,0.656,0.41,1.308,0.602,1.955l5.407-11.514c0.744,0.319,1.456,0.705,2.178,1.07
					L161.166,153.361z M151.467,157.406c-0.317-0.879-0.808-1.68-1.437-2.491c-0.316-0.403-0.668-0.804-1.058-1.201
					c-0.196-0.196-0.397-0.402-0.614-0.588c-0.218-0.184-0.445-0.367-0.682-0.549c1.057-0.121,2.053-0.109,3.027-0.087
					c0.486,0.014,0.963,0.038,1.431,0.073c0.234,0.018,0.467,0.035,0.694,0.061c0.225,0.035,0.448,0.069,0.668,0.104
					L151.467,157.406z"/>
			</g>
			<g>
				<path style="fill:#009849;" d="M159.609,150.703c-0.358-0.226-0.811-0.48-1.365-0.747c-0.563-0.247-1.225-0.512-1.983-0.795
					c0.546,0.841,1.089,1.651,1.595,2.501c0.232,0.118,0.4,0.204,0.505,0.258c0.904,0.463,1.513,1.145,1.804,2.036
					c0.123,0.363,0.071,0.751-0.153,1.165l-4.251,7.851c0.33,0.85,0.637,1.707,0.935,2.545l6.406-11.044
					c1.44,0.79,2.802,1.709,4.187,2.589c-0.385-0.901-0.783-1.811-1.196-2.729c-0.744-0.498-1.535-0.919-2.307-1.372
					c-0.074-0.206-0.13-0.374-0.166-0.504c0.054-0.676,0.115-1.132,0.189-1.361c-0.289-0.453-0.577-0.918-0.878-1.367
					c-0.63,1.164-1.138,2.258-1.542,3.298C161.19,152.101,160.588,151.331,159.609,150.703z"/>
			</g>
			<g>
				<path style="fill:#009849;" d="M170.12,163.425c0.639-0.141,1.115-0.4,1.418-0.784c0.49-0.62,0.598-1.429,0.303-2.444
					c-0.283-1.031-0.946-1.852-1.897-2.535c-0.448-0.319-0.919-0.559-1.408-0.72c-0.488-0.162-1.018-0.21-1.549-0.196
					c-1.07,0.036-1.792,0.376-2.188,1.003c-0.431,0.681-0.449,1.504-0.079,2.454c0.182,0.48,0.448,0.894,0.761,1.306
					c0.315,0.408,0.701,0.775,1.162,1.103c0.615,0.437,1.136,0.701,1.567,0.794C168.849,163.555,169.479,163.568,170.12,163.425z
					 M166.296,173.429l1.087-1.276c-0.145-1.776-0.408-3.184-0.619-4.342c-0.218-1.15-0.423-2.003-0.612-2.507
					c-0.648-1.84-1.283-3.458-1.953-4.673l-1.792,2.748c0.244,0.421,0.476,0.822,0.691,1.21c0.202,0.401,0.395,0.785,0.579,1.153
					c0.361,0.733,0.673,1.395,0.941,1.989c0.137,0.293,0.254,0.581,0.355,0.858c0.104,0.274,0.198,0.531,0.281,0.771
					c0.168,0.48,0.296,0.892,0.388,1.239l0.356,1.402C166.105,172.476,166.2,172.957,166.296,173.429z M170.01,160.643
					c-0.218,0.293-0.388,0.465-0.51,0.514c-0.264,0.085-0.737,0.06-1.415-0.071c-0.678-0.131-1.15-0.292-1.428-0.49
					c-0.37-0.263-0.425-0.565-0.166-0.907c0.339-0.46,0.79-0.675,1.359-0.64c0.887,0.066,1.539,0.247,1.94,0.532
					C170.23,159.894,170.303,160.248,170.01,160.643z"/>
			</g>
			<g>
				<path style="fill:#009849;" d="M188.091,176.816c-0.019-0.514-0.062-1.016-0.11-1.519l-0.147-1.524l-0.824-1.047l-0.413-0.523
					l-0.436-0.504l-1.745-2.015l-0.437-0.503l-0.459-0.483l-0.919-0.965l-0.92-0.964l-0.46-0.482l-0.481-0.461l-1.929-1.839
					l-0.483-0.459l-0.502-0.438l-1.007-0.873l-1.008-0.872l-0.504-0.436l-0.522-0.414l-2.096-1.647
					c0.349,0.973,0.684,1.937,1.005,2.89c3.495,2.852,6.761,5.983,9.758,9.354l-1.484,1.315c-0.002-0.122-0.009-0.239-0.023-0.351
					c-0.004-0.245-0.004-0.509-0.001-0.794c-0.104-0.564-0.419-1.119-0.91-1.685c-0.263-0.299-0.641-0.53-1.129-0.688
					c-0.49-0.157-0.908-0.224-1.274-0.183l-0.026-0.318c-0.244-1.167-0.868-2.219-1.845-3.128c-0.947-0.805-1.981-1.177-3.07-1.101
					c-0.975,0.045-1.733,0.419-2.285,1.092c-0.21,0.255-0.379,0.532-0.509,0.83c-0.333,0.787-0.316,1.656,0.051,2.586
					c0.361,0.937,0.996,1.747,1.815,2.562c0.955,0.918,1.913,1.221,2.848,0.969c0.32-0.073,0.588-0.457,0.786-1.156
					c0.251-0.846,0.014-1.604-0.696-2.261c-0.456-0.435-0.942-0.697-1.453-0.783c-0.525-0.071-0.927,0.055-1.21,0.372
					c-0.126,0.141-0.213,0.304-0.262,0.49c-0.432-0.665-0.44-1.244-0.017-1.731c0.33-0.38,0.819-0.524,1.473-0.425
					c0.327,0.05,0.643,0.145,0.944,0.293c0.292,0.156,0.571,0.361,0.835,0.613c0.66,0.629,1.052,1.275,1.169,1.93
					c0.056,0.168,0.095,0.564,0.064,1.226c-0.029,0.312-0.231,0.51-0.604,0.598l1.471,0.893c0.428-0.622,0.774-0.954,1.044-0.991
					c0.327-0.021,0.613,0.095,0.854,0.349c0.305,0.323,0.504,0.72,0.553,1.223c0.056,0.497-0.03,0.842-0.254,1.04l-4.964,4.397
					c0.069,0.898,0.129,1.783,0.179,2.655l9.553-7.963c0.533,0.616,1.016,1.274,1.526,1.91l0.755,0.961
					C187.611,176.158,187.861,176.48,188.091,176.816z"/>
			</g>
			<g>
				<path style="fill:#009849;" d="M187.86,173.844c-0.461-0.709-1.215-1.685-2.373-2.817c0.144,0.987,0.291,1.95,0.373,2.947
					c0.161,0.204,0.278,0.353,0.35,0.446c0.627,0.799,0.895,1.67,0.781,2.599c-0.051,0.388-0.268,0.72-0.647,1l-7.18,5.306
					c-0.065,0.913-0.14,1.811-0.223,2.695l10.485-7.285c0.235,0.336,0.481,0.665,0.707,1.008l0.665,1.036l1.328,2.073
					c0.029-0.976,0.049-1.966,0.059-2.969l-0.725-1.129l-0.774-1.096c0.019-0.217,0.039-0.393,0.062-0.525
					c0.335-0.588,0.581-0.974,0.745-1.151l-0.218-1.608c-1.063,0.786-1.994,1.566-2.799,2.334
					C188.716,175.767,188.486,174.824,187.86,173.844z"/>
			</g>
			<g>
				<path style="fill:#009849;" d="M197.008,192.089c0.157-0.95,0.309-1.915,0.451-2.893c-2.005-4.117-4.338-8.072-6.968-11.816
					c0.037,1.005,0.076,1.988,0.05,2.996c0.852,1.333,1.73,2.651,2.492,4.039c-1.305-0.472-2.476-0.674-3.568-0.602
					c-1.08,0.065-2.031,0.373-2.869,0.903c-1.936,1.23-2.833,3.023-2.986,5.373c-0.019,0.377,0.03,0.77,0.149,1.18
					c0.059,0.205,0.136,0.415,0.231,0.629c0.084,0.22,0.184,0.445,0.301,0.675c0.359,0.704,0.863,1.229,1.518,1.591
					c0.662,0.358,1.246,0.425,1.801,0.161c0.313-0.149,0.542-0.362,0.687-0.643c0.142-0.279,0.185-0.619,0.145-1.028
					c0.056-0.337-0.018-0.708-0.223-1.108c-0.156-0.305-0.38-0.587-0.67-0.844c-0.384-0.328-0.744-0.51-1.082-0.548
					c-0.332-0.041-0.627,0.055-0.886,0.282c-0.117,0.112-0.246,0.345-0.389,0.694c-0.145,0.349-0.223,0.525-0.207,0.517
					c-0.072,0.039-0.154-0.057-0.277-0.271c0.354,0.391,0.556,0.53,0.632,0.396c-0.019-0.037-0.052-0.101-0.098-0.193
					c-0.281-0.552-0.339-1.201-0.104-2.008c0.184-0.658,0.46-1.189,0.834-1.581c0.215-0.225,0.505-0.447,0.871-0.663
					c0.84-0.496,1.726-0.817,2.667-0.948c0.909-0.139,1.835,0.003,2.782,0.437c0.482,0.212,0.937,0.514,1.398,0.889
					c0.462,0.374,0.926,0.823,1.392,1.346C195.822,189.863,196.431,190.896,197.008,192.089z"/>
			</g>
			<g>
				<path style="fill:#009849;" d="M202.093,207.624c0.349-0.937,0.694-1.89,1.034-2.859c-1.611-6.294-3.978-12.389-6.985-18.143
					c-0.097,1.017-0.203,2.02-0.316,3.008c0.247,0.471,0.446,0.965,0.672,1.446l-5.997,2.775c-0.233,1.077-0.464,2.127-0.724,3.166
					c1.26,0.111,2.434,0.494,3.523,1.153c1.112,0.65,2.041,1.612,2.888,2.836c-0.909,0.063-1.801,0.247-2.682,0.542
					c-1.075,0.358-2.551,1.199-4.455,2.441c-0.016,0.594-0.088,1.199-0.147,1.794c1.617-0.875,2.505-1.347,2.676-1.376
					c0.314-0.16,0.637-0.292,0.968-0.393c1.566-0.474,3.572-0.317,6.074,0.66l0.368-1.859c0.114-0.623,0.257-1.262,0.335-1.887
					c-0.61-0.921-1.193-1.722-1.748-2.407c-0.139-0.171-0.276-0.335-0.412-0.491c-0.141-0.155-0.286-0.3-0.425-0.439
					c-0.281-0.278-0.553-0.528-0.818-0.749c-1.005-0.784-1.745-1.351-2.255-1.719l3.91-1.66
					C199.508,198.035,201.021,202.781,202.093,207.624z"/>
			</g>
			<g>
				<path style="fill:#009849;" d="M204.046,225.508c0.53-0.826,1.061-1.668,1.589-2.526l-0.043-1.66
					c0.062-0.389,0.176-0.673,0.372-0.854c0.109-0.031,0.204-0.037,0.286-0.017c0.22-0.037,0.412-0.144,0.573-0.323
					c0.269-0.45,0.596-1.077,0.98-1.891l-2.761,0.412l-2.655,0.566l0.365-0.414c1.665-1.778,2.342-3.178,2.235-4.059
					c-0.021-0.167-0.097-0.461-0.228-0.88c-0.127-0.383-0.264-0.735-0.417-1.056c-0.167-0.318-0.346-0.606-0.536-0.862
					c-0.379-0.512-0.803-0.899-1.27-1.161c0.203-0.205,0.392-0.492,0.565-0.864c0.011-0.027,0.155-0.383,0.431-1.07
					c0.179-0.745,0.151-1.567-0.052-2.46l-0.259-1.118c-0.086-0.373-0.169-0.746-0.28-1.113l-0.626-2.208
					c-0.298,0.966-0.601,1.916-0.909,2.85c0.467,1.928,0.598,2.564,0.449,1.896c0.134,0.647,0.139,1.228,0.016,1.735
					c-0.188,0.376-0.347,0.659-0.504,0.858c-0.381-0.66-0.89-1.203-1.499-1.63c-0.672-0.483-1.241-0.659-1.711-0.546
					c-0.485,0.117-0.872,0.436-1.163,0.946c-0.29,0.511-0.357,1.104-0.199,1.789c0.111,0.47,0.291,0.944,0.612,1.411
					c0.315,0.469,0.652,0.81,1.009,1.02c-0.561,0.798-0.746,1.648-0.645,2.59c0.147,1.157,0.532,1.853,1.156,2.1
					c0.473,0.194,0.923,0.205,1.348,0.023c0.394-0.179,0.732-0.537,1.016-1.08c0.142-0.272,0.362-0.808,0.659-1.623
					c0.348,0.092,0.605,0.54,0.772,1.346c0.089,0.507-0.137,1.174-0.764,1.979c-0.633,0.804-1.123,1.207-1.468,1.236l-7.441,0.499
					c-0.501,0.785-1.002,1.553-1.503,2.303l12.371-0.673C203.986,222.488,204.003,223.999,204.046,225.508z"/>
			</g>
		</g>
		<g>
			<polygon style="fill:#EB1D25;" points="57.452,244.09 39.023,234.452 47.64,252.869 51.533,232.921 37.086,246.786 			"/>
		</g>
		<g>
			<polygon style="fill:#EB1D25;" points="68.762,266.404 48.378,262.277 61.782,277.567 59.968,257.324 49.952,274.663 			"/>
		</g>
		<g>
			<polygon style="fill:#EB1D25;" points="190.606,244.09 209.035,234.452 200.418,252.869 196.524,232.921 210.972,246.786 			"/>
		</g>
		<g>
			<polygon style="fill:#EB1D25;" points="179.296,266.404 199.679,262.277 186.276,277.567 188.09,257.324 198.106,274.663 			"/>
		</g>
		<g>
			<path style="fill:#F9EC25;" d="M136.274,238.149c0.024-0.275,0.07-0.55,0.068-0.825c-0.003-0.503-0.056-1.006-0.046-1.508
				c0.008-0.418,0.225-0.532,0.547-0.278c0.217,0.171,0.415,0.406,0.535,0.656c0.459,0.957,0.877,1.934,1.324,2.897
				c0.126,0.271,0.293,0.522,0.45,0.778c0.107,0.174,0.26,0.247,0.431,0.096c0.686-0.608,1.399-1.19,2.037-1.848
				c0.357-0.368,0.286-0.913,0.228-1.406c-0.062-0.523-0.133-1.045-0.189-1.569c-0.063-0.584,0.094-1.091,0.521-1.505
				c0.304-0.294,0.582-0.618,0.898-0.898c0.712-0.631,1.011-1.43,1.002-2.374c-0.005-0.541,0.003-1.082,0.017-1.623
				c0.004-0.156,0.05-0.31,0.095-0.574c0.283,0.232,0.502,0.4,0.708,0.584c0.528,0.472,0.649,0.459,1.199,0.017
				c0.304-0.245,0.651-0.444,1.002-0.615c0.212-0.103,0.466-0.059,0.522,0.238c0.062,0.324,0.265,0.279,0.475,0.233
				c0.463-0.102,0.526-0.019,0.602,0.459c0.129,0.813,0.245,1.64,0.491,2.42c0.407,1.293,0.565,2.619,0.683,3.957
				c0.132,1.5,0.241,3.002,0.376,4.501c0.018,0.204,0.1,0.42,0.207,0.596c0.754,1.229,1.201,2.58,1.509,3.979
				c0.103,0.47,0.015,0.982,0.105,1.457c0.271,1.427,0.596,2.843,0.878,4.268c0.095,0.478,0.138,0.969,0.18,1.456
				c0.023,0.268,0.028,0.525-0.198,0.765c-0.11,0.117-0.096,0.412-0.057,0.61c0.38,1.949,0.403,3.921,0.416,5.896
				c0.01,1.472,0.082,2.938,0.361,4.389c0.112,0.584,0.169,1.18,0.224,1.774c0.013,0.135-0.065,0.292-0.136,0.419
				c-0.158,0.285-0.451,0.342-0.674,0.101c-0.199-0.215-0.372-0.47-0.499-0.735c-0.278-0.582-0.637-0.965-1.345-0.868
				c-0.378,0.052-0.571-0.144-0.664-0.555c-0.039-0.171-0.055-0.347-0.085-0.52c-0.07-0.398-0.188-0.455-0.557-0.309
				c-1.313,0.521-2.025,1.488-2.273,2.908c-0.213,1.221-0.035,2.325,0.492,3.426c0.579,1.209,1.012,2.478,1.244,3.81
				c0.013,0.073,0.023,0.148,0.024,0.222c0.001,0.044-0.018,0.088-0.048,0.218c-0.119-0.151-0.203-0.235-0.261-0.335
				c-0.613-1.045-1.212-2.099-1.836-3.137c-0.418-0.695-0.857-1.378-1.307-2.052c-0.505-0.757-0.798-1.572-0.82-2.496
				c-0.015-0.65-0.174-1.244-0.635-1.758c-0.199-0.222-0.287-0.605-0.307-0.923c-0.029-0.461-0.062-0.615-0.494-0.591
				c-0.733,0.041-0.78-0.228-0.813-0.856c-0.036-0.702-0.001-1.409-0.054-2.109c-0.023-0.302-0.211-0.587-0.283-0.89
				c-0.056-0.238-0.097-0.501-0.057-0.737c0.103-0.614,0.168-1.244,0.562-1.771c0.074-0.098,0.078-0.296,0.042-0.427
				c-0.417-1.506-0.838-3.011-1.279-4.509c-0.222-0.755-0.489-1.497-0.733-2.246c-0.527-1.619-1.535-2.914-2.714-4.075
				c-0.474-0.466-1.034-0.847-1.58-1.228c-0.342-0.238-0.741-0.167-1.22-0.084c0.2,0.251,0.368,0.417,0.482,0.615
				c0.158,0.276,0.331,0.564,0.398,0.869c0.089,0.407-0.152,0.574-0.543,0.435c-0.461-0.165-1.314,0.351-1.393,0.838
				c-0.04,0.247,0.13,0.245,0.274,0.229c0.226-0.026,0.449-0.085,0.69-0.133c-0.094,0.473-0.341,0.66-0.758,0.577
				c-0.393-0.078-0.729,0.026-0.959,0.34c-0.44,0.601-0.855,0.524-1.374,0.16c-0.751-0.527-1.476-1.095-2.193-1.669
				c-0.837-0.67-1.647-1.383-2.197-2.323c-0.345-0.589-0.54-1.27-0.889-1.856c-0.42-0.705-0.916-1.365-1.416-2.016
				c-0.108-0.141-0.377-0.147-0.561-0.24c-0.088-0.044-0.222-0.16-0.209-0.215c0.082-0.374,0.171-0.752,0.318-1.103
				c0.041-0.098,0.287-0.157,0.433-0.146c0.214,0.016,0.246-0.063,0.263-0.249c0.04-0.457,0.068-0.921,0.168-1.367
				c0.115-0.516,0.05-0.991-0.132-1.472c-0.291-0.771-0.568-1.547-0.852-2.32c-0.016-0.044-0.046-0.083-0.122-0.214
				c0.053,0.574,0.113,1.047,0.138,1.521c0.045,0.843,0.036,0.843-0.802,1.064c0.228,0.222,0.417,0.427,0.626,0.606
				c0.649,0.555,0.655,0.672,0.317,1.47c-0.26,0.616-0.544,1.248-0.643,1.901c-0.144,0.951,0.433,1.692,0.95,2.417
				c0.181,0.254,0.387,0.489,0.582,0.733c0.319,0.399,0.478,0.839,0.287,1.346c0.79,0.185,1.036,0.53,0.801,1.118
				c-0.17-0.057-0.344-0.115-0.518-0.172c-0.028,0.025-0.055,0.05-0.083,0.074c0.083,0.225,0.135,0.471,0.256,0.672
				c0.426,0.706,0.833,1.43,1.326,2.085c0.762,1.012,1.04,2.078,0.772,3.349c-0.281,1.334-0.628,2.61-1.613,3.599
				c-0.218,0.218-0.467,0.41-0.724,0.579c-0.611,0.403-1.127,0.885-1.46,1.562c-0.106,0.217-0.276,0.421-0.463,0.572
				c-0.241,0.195-0.478,0.073-0.418-0.225c0.102-0.509,0.291-1,0.451-1.496c0.029-0.09,0.09-0.17,0.093-0.293
				c-0.244,0.242-0.471,0.505-0.734,0.723c-0.619,0.512-1.253,1.005-1.885,1.501c-0.066,0.052-0.156,0.072-0.237,0.102
				c-0.437,0.162-0.56,0.1-0.757-0.433c-0.157,0.17-0.308,0.306-0.427,0.466c-0.529,0.717-1.037,0.945-1.7,0.747
				c-0.958-0.286-1.638-1.004-1.685-1.794c-0.025-0.42,0.184-0.705,0.595-0.871c-0.59-0.21-0.814-0.107-0.987,0.412
				c-0.09,0.27-0.299,0.255-0.424,0.1c-0.255-0.313-0.467-0.664-0.675-1.012c-0.133-0.223-0.216-0.477-0.348-0.701
				c-0.047-0.08-0.183-0.161-0.262-0.148c-0.065,0.011-0.147,0.162-0.15,0.253c-0.007,0.223,0.017,0.45,0.047,0.672
				c0.024,0.173,0.081,0.341,0.113,0.513c0.23,1.213-0.343,1.952-1.552,2.012c-0.271,0.014-0.541,0.039-0.81,0.073
				c-0.265,0.034-0.347,0.155-0.172,0.404c0.328,0.468,0.274,0.557-0.251,0.811c-0.325,0.157-0.627,0.387-0.899,0.63
				c-0.268,0.239-0.472,0.28-0.606-0.058c-0.186-0.467-0.293-0.975-0.374-1.475c-0.068-0.418-0.033-0.853-0.082-1.276
				c-0.017-0.144-0.163-0.392-0.232-0.386c-0.187,0.017-0.482,0.106-0.523,0.236c-0.097,0.304-0.111,0.653-0.086,0.978
				c0.042,0.537,0.084,1.051-0.351,1.467c-0.357,0.341-0.618,0.347-0.937-0.036c-0.302-0.362-0.582-0.742-0.93-1.19
				c-0.05,0.482-0.073,0.889-0.14,1.288c-0.053,0.317-0.12,0.644-0.252,0.933c-0.17,0.373-0.583,0.477-0.928,0.329
				c0-0.494,0.018-0.969-0.01-1.441c-0.01-0.163-0.12-0.329-0.213-0.474c-0.115-0.178-0.281-0.405-0.5-0.249
				c-0.151,0.108-0.204,0.361-0.297,0.551c-0.009,0.018,0.011,0.049,0.01,0.073c-0.007,0.176-0.017,0.352-0.026,0.528
				c-0.214-0.066-0.479-0.073-0.634-0.209c-0.459-0.404-0.577-0.978-0.594-1.569c-0.009-0.313,0.023-0.627,0.115-0.966
				c0.089,0.236,0.179,0.473,0.268,0.709c0.026-0.005,0.052-0.009,0.079-0.014c0.009-0.043,0.024-0.086,0.025-0.129
				c0.044-1.662,0.003-3.319-0.378-4.944c-0.087-0.372-0.24-0.738-0.416-1.078c-0.355-0.685-0.508-1.406-0.498-2.174
				c0.005-0.364-0.013-0.729-0.047-1.091c-0.016-0.17-0.053-0.37-0.154-0.492c-0.436-0.521-0.368-1.138-0.398-1.752
				c-0.03-0.608-0.126-1.213-0.218-1.815c-0.029-0.189-0.086-0.318,0.161-0.404c0.345-0.121,0.356-0.457,0.347-0.757
				c-0.009-0.297-0.025-0.602-0.415-0.701c-0.377-0.096-0.497-0.456-0.559-0.781c-0.191-1.002-0.175-2.003,0.224-2.958
				c0.107-0.257,0.302-0.485,0.49-0.695c0.129-0.144,0.316-0.235,0.477-0.35c-0.024-0.064-0.048-0.127-0.071-0.191
				c-0.314-0.109-0.621-0.262-0.944-0.318c-0.519-0.09-1.048-0.139-1.575-0.162c-0.538-0.023-0.921-0.314-0.912-0.868
				c0.007-0.4,0.124-0.808,0.247-1.194c0.113-0.355,0.323-0.678,0.445-1.031c0.156-0.454,0.062-0.674-0.338-0.915
				c-0.243-0.147-0.509-0.258-0.744-0.415c-0.302-0.202-0.522-0.452-0.61-0.852c-0.051-0.229-0.294-0.47-0.512-0.59
				c-0.3-0.165-0.466-0.388-0.477-0.702c-0.034-0.935,0.046-1.861,0.413-2.73c0.078-0.184,0.264-0.357,0.442-0.452
				c0.499-0.264,0.893-0.634,1.178-1.114c0.214-0.36,0.237-0.726,0.139-1.178c-0.19-0.877-0.204-1.793-0.338-2.685
				c-0.075-0.501-0.184-1.015-0.386-1.474c-0.32-0.73-0.965-1.032-1.723-1.118c-0.573-0.065-1.157-0.097-1.711-0.244
				c-0.339-0.09-0.637-0.36-0.939-0.569c-0.255-0.176-0.481-0.394-0.736-0.569c-0.398-0.273-0.819-0.409-1.283-0.144
				c-0.094,0.053-0.211,0.072-0.319,0.089c-0.396,0.065-0.531-0.033-0.541-0.444c-0.01-0.414,0.015-0.83,0.034-1.244
				c0.032-0.697-0.111-0.908-0.752-1.087c-0.959-0.269-1.2-0.821-0.716-1.713c0.183-0.338,0.44-0.635,0.644-0.963
				c0.223-0.358,0.454-0.718,0.621-1.104c0.075-0.174,0.029-0.419-0.01-0.622c-0.071-0.367-0.016-0.486,0.353-0.439
				c0.461,0.059,0.923,0.156,1.367,0.295c0.392,0.123,0.695,0.042,0.976-0.237c0.777-0.773,1.14-1.729,1.277-2.812
				c0.054-0.425,0.221-0.843,0.394-1.238c0.053-0.122,0.322-0.257,0.444-0.22c1.134,0.337,2.299,0.269,3.453,0.31
				c0.641,0.023,1.284-0.004,1.925-0.029c0.536-0.021,0.635-0.157,0.755-0.673c0.052-0.222,0.248-0.41,0.422-0.679
				c-0.138-0.108-0.353-0.299-0.59-0.459c-0.465-0.316-0.94-0.627-1.158-1.179c-0.118-0.298-0.173-0.624-0.235-0.941
				c-0.085-0.431-0.282-0.646-0.713-0.676c-0.776-0.055-1.554-0.067-2.328-0.141c-0.884-0.084-1.909-1.038-2.203-1.899
				c-0.112-0.327-0.349-0.654-0.613-0.876c-0.693-0.58-1.424-1.113-2.159-1.638c-0.171-0.122-0.412-0.173-0.627-0.193
				c-1.366-0.122-1.655-0.517-1.475-2.075c0.041-0.355,0.329-0.678,0.489-1.023c0.198-0.426,0.458-0.842,0.552-1.293
				c0.138-0.66,0.453-1.17,0.966-1.548c0.726-0.533,1.398-1.091,1.855-1.911c0.188-0.337,0.596-0.546,0.906-0.811
				c0.027-0.023,0.071-0.024,0.101-0.045c0.333-0.22,0.772-0.362,0.719-0.893c-0.042-0.421-0.558-0.889-1.058-0.911
				c-0.349-0.015-0.703,0.075-1.055,0.115c-0.081,0.009-0.162,0.011-0.262,0.017c-0.008-0.073-0.027-0.123-0.015-0.164
				c0.206-0.721,0.415-1.441,0.627-2.161c0.021-0.071,0.047-0.154,0.098-0.201c0.113-0.103,0.243-0.186,0.366-0.277
				c0.085,0.127,0.247,0.258,0.242,0.382c-0.031,0.724,0.475,1.043,0.962,1.36c0.456,0.296,0.983,0.489,1.408,0.822
				c0.531,0.416,1.034,0.889,1.467,1.409c0.412,0.496,0.347,0.82-0.142,1.36c0.308-0.039,0.538-0.065,0.767-0.098
				c0.716-0.101,0.771-0.071,1.125,0.598c0.045,0.084,0.108,0.159,0.163,0.239c0.057-0.029,0.098-0.037,0.121-0.063
				c0.518-0.567,0.519-0.561,1.221-0.274c0.318,0.13,0.642,0.262,0.976,0.326c0.315,0.06,0.434-0.123,0.257-0.395
				c-0.21-0.32-0.493-0.589-0.728-0.894c-0.241-0.313-0.508-0.618-0.679-0.97c-0.19-0.391,0.018-0.662,0.443-0.673
				c0.918-0.024,1.847,0.693,2.078,1.61c0.27,1.074,0.618,2.119,1.204,3.059c0.141,0.225,0.402,0.374,0.615,0.549
				c0.249,0.204,0.52,0.382,0.755,0.601c0.47,0.439,0.943,0.746,1.651,0.629c0.37-0.061,0.785,0.144,1.175,0.247
				c0.141,0.037,0.27,0.122,0.401,0.192c0.68,0.364,0.784,0.317,0.784-0.452c0-0.358,0.213-0.541,0.627-0.593
				c-0.111-0.182-0.183-0.332-0.283-0.46c-0.232-0.297-0.292-0.625-0.11-0.948c0.182-0.323,0.393-0.639,0.643-0.909
				c0.238-0.257,0.442-0.169,0.512,0.181c0.024,0.122-0.012,0.269,0.042,0.37c0.051,0.095,0.211,0.224,0.276,0.201
				c0.319-0.115,0.525,0.047,0.651,0.282c0.211,0.392,0.415,0.799,0.542,1.225c0.203,0.682,0.452,1.322,0.95,1.843
				c0.205,0.214,0.253,0.43-0.003,0.683c-0.125,0.123-0.199,0.355-0.204,0.54c-0.018,0.715,0.005,1.431,0.005,2.147
				c0,1.206,0.019,2.412-0.019,3.617c-0.017,0.547-0.165,1.089-0.227,1.637c-0.028,0.246-0.009,0.503,0.024,0.75
				c0.056,0.42,0.352,0.781,0.722,0.803c0.996,0.061,1.887,0.432,2.776,0.851c1.385,0.652,2.863,0.941,4.377,0.963
				c2.394,0.036,4.79,0.041,7.184,0.008c1.071-0.015,2.14-0.167,3.211-0.231c1.029-0.061,2.038,0.057,3.029,0.375
				c1.548,0.498,3.131,0.499,4.721,0.259c1.12-0.169,2.237-0.363,3.358-0.525c1.126-0.162,2.091,0.27,3.04,0.836
				c0.826,0.493,1.704,0.895,2.555,1.345c0.316,0.167,0.605,0.331,0.696,0.763c0.047,0.226,0.304,0.439,0.514,0.588
				c0.235,0.167,0.536,0.275,0.542,0.607c0.007,0.344-0.213,0.612-0.512,0.721c-0.516,0.19-1.049,0.337-1.583,0.464
				c-0.758,0.18-0.795,0.298-1.019,1.069c-0.271,0.933-0.649,1.837-1.032,2.73c-0.376,0.876-0.772,1.735-0.872,2.704
				c-0.053,0.518-0.187,0.584-0.704,0.693c-0.43,0.091-0.848,0.253-1.259,0.417c-0.583,0.233-0.826,0.703-0.855,1.329
				c-0.019,0.423-0.065,0.851-0.162,1.261c-0.042,0.175-0.247,0.308-0.379,0.461c-0.132-0.132-0.298-0.243-0.39-0.4
				c-0.221-0.378-0.633-0.626-1.003-0.564c-0.303,0.051-0.444,0.213-0.339,0.524c0.088,0.261,0.099,0.473-0.224,0.55
				c-0.323,0.077-0.61-0.087-0.695-0.371c-0.037-0.123-0.119-0.232-0.18-0.347c-0.128,0.083-0.302,0.137-0.375,0.255
				c-0.114,0.186-0.18,0.41-0.23,0.627c-0.119,0.517-0.251,0.661-0.77,0.685c-0.357,0.017-0.716-0.012-1.073-0.021
				c-0.321-0.008-0.642-0.036-0.962-0.022c-0.529,0.024-0.635,0.148-0.679,0.683c-0.019,0.235-0.046,0.473-0.1,0.702
				c-0.054,0.228-0.204,0.354-0.453,0.363c-0.718,0.027-1.147,0.442-1.294,1.126c-0.123,0.573-0.185,1.163-0.242,1.748
				c-0.046,0.474-0.168,0.62-0.619,0.744c-0.167,0.046-0.397,0.185-0.429,0.323c-0.034,0.144,0.094,0.392,0.226,0.497
				c0.273,0.217,0.408,0.356,0.066,0.652c-0.105,0.091-0.087,0.415-0.028,0.6c0.19,0.595,0.393,1.19,0.648,1.758
				c0.741,1.653,1.275,3.364,1.545,5.164c0.075,0.499,0.196,1.006,0.542,1.403C136.174,238.152,136.224,238.151,136.274,238.149z
				 M126.217,246.455c-0.034,0.002-0.067,0.004-0.101,0.006c-0.035,0.15-0.091,0.299-0.102,0.451
				c-0.032,0.464-0.003,0.936-0.08,1.391c-0.098,0.586-0.164,1.221-0.439,1.725c-0.844,1.545-1.961,2.888-3.27,4.054
				c-0.16,0.142-0.41,0.177-0.614,0.271c-0.069,0.032-0.174,0.083-0.182,0.138c-0.047,0.322-0.071,0.647-0.102,0.971
				c0.048,0.018,0.097,0.036,0.145,0.053c0.225-0.271,0.424-0.571,0.681-0.805c0.342-0.311,0.699-0.639,1.108-0.829
				c0.329-0.154,0.527-0.296,0.592-0.67c0.031-0.174,0.206-0.325,0.328-0.476c0.077-0.095,0.2-0.155,0.261-0.257
				c0.171-0.289,0.302-0.603,0.481-0.886c0.204-0.323,0.383-0.721,0.681-0.906c0.312-0.194,0.471-0.42,0.55-0.735
				c0.245-0.982,0.318-1.981,0.217-2.989C126.354,246.789,126.27,246.624,126.217,246.455z M116.413,229.955
				c-0.009,0.016-0.018,0.033-0.028,0.049c0.58,0.269,1.154,0.551,1.742,0.8c0.223,0.094,0.477,0.154,0.715,0.149
				c0.119-0.002,0.234-0.186,0.351-0.288c-0.111-0.122-0.208-0.329-0.336-0.351C118.047,230.172,117.229,230.07,116.413,229.955z
				 M119.907,232.575c0.474,0.176,1.621,0.033,1.954-0.243C121.303,231.782,120.094,231.933,119.907,232.575z M110.152,253.999
				c0.029,0.528,0.238,0.752,0.551,0.647c0.515-0.174,0.814-0.927,0.561-1.462C110.961,253.551,110.846,254.171,110.152,253.999z
				 M122.823,233.949c0.336-0.302,0.392-1.107,0.119-1.378c-0.151-0.15-0.297-0.107-0.325,0.082
				C122.55,233.098,122.595,233.536,122.823,233.949z M115.115,250.031c-0.052,0.02-0.105,0.041-0.157,0.061
				c0.06,0.522,0.102,1.052,0.5,1.443c0.052-0.019,0.104-0.039,0.157-0.058C115.449,250.995,115.282,250.513,115.115,250.031z
				 M109.699,250.33c0,0.263,0,0.526,0,0.789C109.905,250.86,110.026,250.601,109.699,250.33z"/>
			<path style="fill:#F9EC25;" d="M130.505,253.998c0.165-0.439,0.26-0.785,0.42-1.096c0.483-0.942,0.694-1.936,0.743-2.998
				c0.025-0.531,0.215-1.071,0.416-1.571c0.135-0.339,0.349-0.32,0.594-0.043c0.835,0.944,0.993,2.206,0.422,3.401
				c-0.465,0.974-1.201,1.674-2.135,2.168C130.863,253.912,130.743,253.927,130.505,253.998z"/>
			<path style="fill:#F9EC25;" d="M138.829,247.884c-0.123,0.216-0.199,0.524-0.383,0.621c-0.168,0.089-0.486,0.011-0.68-0.098
				c-0.839-0.474-1.367-1.903-1.084-2.833c0.128-0.421,0.422-0.539,0.757-0.305C138.028,245.68,138.759,247.107,138.829,247.884z"/>
			<path style="fill:#F9EC25;" d="M129.574,252.9c0.403-1.263,0.608-2.525,1.135-3.736C131.33,250.036,130.611,252.41,129.574,252.9
				z"/>
			<path style="fill:#F9EC25;" d="M128.88,245.68c0.511-0.14,1.494,0.352,1.658,0.815c0.087,0.246-0.012,0.422-0.238,0.424
				c-0.378,0.002-1.315-0.722-1.419-1.101C128.869,245.773,128.88,245.723,128.88,245.68z"/>
			<path style="fill:#F9EC25;" d="M131.664,248.072c-0.145,0.183-0.256,0.448-0.443,0.529c-0.263,0.113-0.583,0.094-0.879,0.11
				c-0.015,0.001-0.095-0.241-0.053-0.298c0.2-0.263,0.401-0.544,0.66-0.736C131.262,247.447,131.588,247.643,131.664,248.072z"/>
			<path style="fill:#F9EC25;" d="M126.84,254.635c0.027,0.081,0.125,0.216,0.095,0.309c-0.145,0.457-0.419,0.824-0.858,1.028
				c-0.255,0.119-0.497-0.054-0.476-0.316C125.628,255.304,126.386,254.623,126.84,254.635z"/>
			<path style="fill:#F9EC25;" d="M127.603,255.405c0.031,0.057,0.107,0.139,0.115,0.227c0.023,0.26-0.275,0.638-0.492,0.617
				c-0.067-0.007-0.167-0.133-0.175-0.213C127.022,255.777,127.323,255.409,127.603,255.405z"/>
			<path style="fill:#F9EC25;" d="M125.437,234.294c0.158,0.212,0.327,0.418,0.467,0.642c0.035,0.056-0.026,0.173-0.042,0.261
				c-0.073-0.031-0.182-0.041-0.213-0.097c-0.129-0.231-0.235-0.476-0.349-0.715C125.345,234.354,125.391,234.324,125.437,234.294z"
				/>
		</g>
	</g>
	<g>
		<rect x="258.317" y="135.75" style="fill:#07A64D;" width="24.987" height="111.168"/>
		<path style="fill:#07A64D;" d="M320.186,191.257c0-23.857,15.485-35.467,35.417-35.467c8.896,0,15.979,1.908,21.086,3.975v-21.163
			c-5.261-1.553-12.945-2.853-22.239-2.853c-33.605,0-60.621,20.358-60.621,56.938c0,30.537,19.767,53.599,58.15,53.599
			c10.588,0,19.237-1.467,24.71-3.173v-20.365c-4.942,1.908-13.343,3.498-20.921,3.498
			C333.364,226.246,320.186,212.728,320.186,191.257z"/>
		<polygon style="fill:#07A64D;" points="387.337,135.75 387.337,156.742 416.617,156.742 416.617,246.287 441.366,246.287 
			441.366,156.742 471.131,156.742 471.131,135.75 		"/>
	</g>
	<g>
		<path style="fill:#07A64D;" d="M259.112,264.618c2.963-0.49,6.826-0.762,10.901-0.762c6.774,0,11.167,1.252,14.608,3.917
			c3.703,2.83,6.032,7.345,6.032,13.82c0,7.018-2.487,11.859-5.926,14.853c-3.759,3.208-9.473,4.733-16.459,4.733
			c-4.181,0-7.146-0.272-9.155-0.544V264.618z M267.208,294.539c0.688,0.163,1.799,0.163,2.805,0.163
			c7.304,0.055,12.066-4.08,12.066-12.838c0.054-7.617-4.287-11.643-11.219-11.643c-1.799,0-2.965,0.163-3.653,0.326V294.539z"/>
		<path style="fill:#07A64D;" d="M304.039,264.127v36.669h-8.098v-36.669H304.039z"/>
		<path style="fill:#07A64D;" d="M319.437,300.796l-11.432-36.669h8.839l4.339,15.506c1.218,4.352,2.329,8.542,3.175,13.112h0.16
			c0.9-4.407,2.011-8.76,3.227-12.949l4.552-15.669h8.573l-12.014,36.669H319.437z"/>
		<path style="fill:#07A64D;" d="M352.773,264.127v36.669h-8.098v-36.669H352.773z"/>
		<path style="fill:#07A64D;" d="M360.021,292.254c2.169,1.143,5.504,2.285,8.943,2.285c3.705,0,5.662-1.577,5.662-3.97
			c0-2.285-1.694-3.591-5.98-5.169c-5.927-2.122-9.789-5.495-9.789-10.827c0-6.257,5.081-11.043,13.494-11.043
			c4.023,0,6.986,0.87,9.103,1.85l-1.799,6.692c-1.429-0.708-3.969-1.743-7.462-1.743c-3.493,0-5.186,1.633-5.186,3.537
			c0,2.339,2.011,3.373,6.614,5.169c6.298,2.392,9.263,5.767,9.263,10.934c0,6.148-4.605,11.371-14.396,11.371
			c-4.075,0-8.098-1.088-10.109-2.231L360.021,292.254z"/>
		<path style="fill:#07A64D;" d="M396.427,264.127v36.669h-8.098v-36.669H396.427z"/>
		<path style="fill:#07A64D;" d="M436.063,282.081c0,12.024-7.09,19.313-17.517,19.313c-10.585,0-16.775-8.215-16.775-18.66
			c0-10.99,6.826-19.204,17.357-19.204C430.083,263.53,436.063,271.962,436.063,282.081z M410.29,282.571
			c0,7.182,3.281,12.24,8.679,12.24c5.451,0,8.573-5.33,8.573-12.459c0-6.583-3.069-12.24-8.626-12.24
			C413.465,270.112,410.29,275.444,410.29,282.571z"/>
		<path style="fill:#07A64D;" d="M441.351,300.796v-36.669h9.421l7.408,13.439c2.117,3.861,4.235,8.433,5.822,12.566h0.158
			c-0.528-4.842-0.688-9.793-0.688-15.287v-10.718h7.41v36.669h-8.468l-7.622-14.146c-2.117-3.917-4.445-8.649-6.192-12.947
			l-0.158,0.054c0.212,4.842,0.318,10.011,0.318,15.996v11.043H441.351z"/>
	</g>
	<g>
		<polygon style="fill:#EB1D25;" points="39.309,370.803 42.849,370.803 42.849,361.083 53.026,361.083 53.026,357.873 
			42.849,357.873 42.849,351.864 54.441,351.864 54.441,348.654 39.309,348.654 		"/>
		<path style="fill:#EB1D25;" d="M85.727,364.044c-0.017,0.822-0.192,1.532-0.518,2.108c-0.816,1.42-2.314,2.111-4.58,2.111
			c-1.46,0-2.689-0.349-3.639-1.029c-0.933-0.726-1.387-1.766-1.387-3.181v-15.398h-3.54v15.403c0.02,1.678,0.448,3.12,1.277,4.292
			c1.504,2.075,3.956,3.126,7.289,3.126c2.127,0,3.944-0.463,5.403-1.377c2.147-1.339,3.234-3.373,3.234-6.045v-15.398h-3.54
			V364.044z"/>
		<polygon style="fill:#EB1D25;" points="106.333,351.864 113.365,351.864 113.365,370.803 116.89,370.803 116.89,351.864 
			123.88,351.864 123.88,348.654 106.333,348.654 		"/>
		<path style="fill:#EB1D25;" d="M154.766,364.044c-0.017,0.822-0.192,1.532-0.518,2.108c-0.816,1.42-2.314,2.111-4.58,2.111
			c-1.46,0-2.689-0.349-3.639-1.029c-0.933-0.726-1.387-1.766-1.387-3.181v-15.398h-3.54v15.403c0.02,1.678,0.448,3.12,1.277,4.292
			c1.504,2.075,3.956,3.126,7.289,3.126c2.127,0,3.944-0.463,5.403-1.377c2.147-1.339,3.234-3.373,3.234-6.045v-15.398h-3.54
			V364.044z"/>
		<path style="fill:#EB1D25;" d="M194.646,368.815c-0.196-0.323-0.442-1.175-0.498-3.397c-0.021-1.749-0.201-2.979-0.553-3.77
			c-0.331-0.696-0.954-1.3-1.858-1.803c0.214-0.125,0.418-0.253,0.613-0.383c1.506-1.077,2.27-2.658,2.27-4.703
			c0-0.857-0.112-1.635-0.336-2.318c-0.859-2.514-3.065-3.789-6.557-3.789h-10.253v22.148h3.54v-9.19h6.613
			c0.407,0,0.772,0.035,1.088,0.104c1.361,0.291,2.023,1.368,2.023,3.286l-0.028,1.907c0,1.442,0.218,2.669,0.649,3.651l0.107,0.242
			h3.985v-1.289l-0.174-0.12C194.999,369.202,194.782,368.999,194.646,368.815z M181.012,351.864h6.184
			c1.312,0,2.257,0.24,2.811,0.718c0.654,0.553,0.972,1.393,0.972,2.565c0,0.395-0.039,0.745-0.121,1.063
			c-0.301,1.475-1.499,2.192-3.662,2.192h-6.184V351.864z"/>
		<polygon style="fill:#EB1D25;" points="217.068,361.083 228.688,361.083 228.688,357.873 217.068,357.873 217.068,351.864 
			229.131,351.864 229.131,348.654 213.528,348.654 213.528,370.803 229.646,370.803 229.646,367.591 217.068,367.591 		"/>
		<rect x="271.519" y="348.654" style="fill:#EB1D25;" width="3.554" height="22.148"/>
		<path style="fill:#EB1D25;" d="M305.884,358.801l-5.349-1.445c-0.766-0.199-1.391-0.424-1.86-0.667
			c-0.911-0.471-1.354-1.157-1.354-2.098c0-0.591,0.15-1.102,0.462-1.564c0.727-1.099,2.005-1.633,3.907-1.633
			c0.745,0,1.418,0.077,1.998,0.231c1.943,0.512,2.897,1.724,2.914,3.699l0.003,0.402h3.393v-0.405c0-1.354-0.297-2.552-0.881-3.558
			c-1.301-2.299-3.771-3.464-7.342-3.464c-1.84,0-3.433,0.353-4.737,1.048c-2.162,1.167-3.257,3.061-3.257,5.634
			c0.021,2.786,1.531,4.59,4.489,5.362l5.319,1.404c0.233,0.052,0.445,0.117,0.666,0.206c1.973,0.623,2.933,1.558,2.933,2.859
			l-0.027,0.33c-0.102,0.984-0.534,1.735-1.312,2.294c-0.805,0.55-2.05,0.829-3.702,0.829c-2.143,0-3.693-0.552-4.606-1.641
			c-0.704-0.843-1.033-1.826-1.006-3.004l0.009-0.414h-3.41l0.004,0.41c0.02,1.907,0.47,3.472,1.336,4.652
			c1.56,2.13,4.084,3.21,7.501,3.21c2.651,0,4.754-0.582,6.259-1.736l0.409-0.335c1.261-1.2,1.962-2.688,2.083-4.451v-0.414
			c0-0.58-0.077-1.138-0.23-1.656C309.916,360.85,308.364,359.476,305.884,358.801z"/>
		<polygon style="fill:#EB1D25;" points="365.551,357.873 355.384,357.873 355.384,348.654 351.858,348.654 351.858,370.803 
			355.412,370.803 355.412,361.083 365.551,361.083 365.551,370.803 369.091,370.803 369.091,348.654 365.551,348.654 		"/>
		<polygon style="fill:#EB1D25;" points="391.739,361.083 403.359,361.083 403.359,357.873 391.739,357.873 391.739,351.864 
			403.802,351.864 403.802,348.654 388.199,348.654 388.199,370.803 404.317,370.803 404.317,367.591 391.739,367.591 		"/>
		<path style="fill:#EB1D25;" d="M440,368.815c-0.196-0.323-0.442-1.175-0.498-3.397c-0.021-1.749-0.201-2.979-0.553-3.77
			c-0.331-0.696-0.954-1.3-1.858-1.803c0.214-0.125,0.418-0.253,0.613-0.383c1.506-1.077,2.27-2.658,2.27-4.703
			c0-0.857-0.112-1.635-0.336-2.318c-0.859-2.514-3.065-3.789-6.557-3.789h-10.253v22.148h3.54v-9.19h6.613
			c0.407,0,0.772,0.035,1.088,0.104c1.361,0.291,2.023,1.368,2.023,3.286l-0.028,1.907c0,1.442,0.218,2.669,0.649,3.651l0.107,0.242
			h3.985v-1.289l-0.174-0.12C440.353,369.202,440.136,368.999,440,368.815z M426.367,351.864h6.184c1.312,0,2.257,0.24,2.811,0.718
			c0.654,0.553,0.972,1.393,0.972,2.565c0,0.395-0.039,0.745-0.121,1.063c-0.301,1.475-1.499,2.192-3.662,2.192h-6.184V351.864z"/>
		<polygon style="fill:#EB1D25;" points="462.422,367.591 462.422,361.083 474.043,361.083 474.043,357.873 462.422,357.873 
			462.422,351.864 474.485,351.864 474.485,348.654 458.882,348.654 458.882,370.803 475,370.803 475,367.591 		"/>
	</g>
</g>
</svg>
